<?xml version="1.0" encoding="UTF-8"?>
<svg id="Layer_1" xmlns="http://www.w3.org/2000/svg" version="1.1" viewBox="0 0 64 64">
  <!-- Generator: Adobe Illustrator 29.3.1, SVG Export Plug-In . SVG Version: 2.1.0 Build 151)  -->
  <defs>
    <style>
      .st0 {
        fill: #fab271;
      }

      .st1 {
        fill: #31323a;
      }

      .st2 {
        fill: #fcd67b;
      }

      .st3 {
        fill: #dea254;
      }
    </style>
  </defs>
  <path class="st1" d="M61.22,37.65l-7.44-12.25s-.03-.03-.04-.04c-.04-.07-.09-.12-.15-.17-.04-.04-.08-.07-.12-.1-.05-.04-.11-.06-.18-.09-.06-.02-.12-.04-.18-.06-.03,0-.05-.02-.08-.02l-6.67-.65,3.99-2.32c.23-.13.4-.36.46-.62.07-.26.03-.53-.11-.76l-5.11-8.4s-.02-.03-.03-.04c-.05-.07-.1-.12-.16-.18-.04-.03-.07-.06-.11-.09-.06-.04-.13-.07-.19-.09-.06-.03-.11-.04-.17-.05-.03-.01-.06-.03-.09-.03l-8.12-.8c-.18-.01-.36.02-.52.09l-20.7,9.56h-.01c-.11.06-.2.13-.28.21-.04.04-.06.08-.09.12-.03.05-.07.09-.09.13l-5,10.07c-.13.28-.14.6-.01.87.14.28.39.48.69.55l7.53,1.72-7.74,3.57h0c-.11.06-.21.13-.3.22-.02.03-.04.06-.06.09-.04.05-.08.1-.11.15l-7.29,14.69c-.14.27-.14.59-.01.87.13.28.38.48.68.55l21.91,4.98c.09.03.18.04.28.04.11,0,.22-.02.33-.06.02-.01.03-.01.04-.02.04-.02.09-.03.13-.05l18.89-10.98c3.4,2.93,3.85,9.12,3.86,9.2.03.52.47.93,1,.93s.96-.41.99-.93c0-.11.78-10.72,7.96-10.72.55,0,1-.45,1-1s-.45-1-1-1c-1.93,0-3.39-.77-4.5-1.9l6.57-3.81c.23-.14.4-.36.46-.62.07-.26.03-.53-.11-.76ZM48.46,20.73l-5.5,3.21-1.77-.18c-.18-.02-.36.02-.52.09l-14.28,6.6-.93-6.78,18.91-9.67,4.09,6.73ZM36.79,12.91l4.46.44-17.03,8.71-5.08-1,17.65-8.15ZM12.39,30.82l4.09-8.24,7,1.37,1.01,7.37-3.28,1.52-8.82-2.02ZM21.66,34.83l4.43-2.04h0s15.17-7.01,15.17-7.01l1.89.18s.02.01.03.01l6.25.61-26.34,13.48-8.94-1.76,7.51-3.47ZM5.1,52.68l6.38-12.86,10.86,2.13,2.07,15.12-19.31-4.39ZM54.81,45.74c-2.5,1.39-4.07,4.03-4.96,6.66-.79-2.3-2.09-4.61-4.07-6.09-.09-.07-.18-.13-.29-.18-.2-.13-.39-.27-.61-.39,2.5-1.39,4.07-4.03,4.97-6.67.47,1.38,1.12,2.75,2,3.96.01.02.01.04.02.07.06.1.14.19.23.26.75.95,1.64,1.78,2.71,2.38ZM53.06,41.25c-1.91-3.1-2.21-7.17-2.22-7.23-.03-.53-.47-.94-.99-.94s-.97.41-1,.94c0,.1-.78,10.72-7.96,10.72-.55,0-1,.45-1,1s.45,1,1,1c.78,0,1.48.13,2.12.35l-16.63,9.67-2.06-15.09,28.23-14.44,6.43,10.58-5.92,3.44Z"/>
  <path class="st0" d="M54.81,45.74c-2.5,1.39-4.07,4.03-4.96,6.66-.79-2.3-2.09-4.61-4.07-6.09-.09-.07-.18-.13-.29-.18-.2-.13-.39-.27-.61-.39,2.5-1.39,4.07-4.03,4.97-6.67.47,1.38,1.12,2.75,2,3.96.01.02.01.04.02.07.06.1.14.19.23.26.75.95,1.64,1.78,2.71,2.38Z"/>
  <polygon class="st2" points="41.25 13.35 24.22 22.06 19.14 21.06 36.79 12.91 41.25 13.35"/>
  <polygon class="st3" points="24.49 31.32 21.21 32.84 12.39 30.82 16.48 22.58 23.48 23.95 24.49 31.32"/>
  <path class="st3" d="M48.46,20.73l-5.5,3.21-1.77-.18c-.18-.02-.36.02-.52.09l-14.28,6.6-.93-6.78,18.91-9.67,4.09,6.73Z"/>
  <path class="st2" d="M49.43,26.58l-26.34,13.48-8.94-1.76,7.51-3.47,4.43-2.04h0s15.17-7.01,15.17-7.01l1.89.18s.02.01.03.01l6.25.61Z"/>
  <path class="st3" d="M58.98,37.81l-5.92,3.44c-1.91-3.1-2.21-7.17-2.22-7.23-.03-.53-.47-.94-.99-.94s-.97.41-1,.94c0,.1-.78,10.72-7.96,10.72-.55,0-1,.45-1,1s.45,1,1,1c.78,0,1.48.13,2.12.35l-16.63,9.67-2.06-15.09,28.23-14.44,6.43,10.58Z"/>
  <polygon class="st3" points="24.41 57.07 5.1 52.68 11.48 39.82 22.34 41.95 24.41 57.07"/>
  <path class="st1" d="M16.35,11.69c-3.98,0-4.42-6.07-4.43-6.13-.03-.52-.47-.93-1-.93s-.96.41-.99.93c-.01.06-.46,6.13-4.43,6.13-.55,0-1,.44-1,1s.45,1,1,1c3.97,0,4.42,6.06,4.43,6.12.03.53.47.93.99.93s.97-.41,1-.93c.01-.06.44-6.12,4.43-6.12.55,0,1-.45,1-1s-.45-1-1-1ZM10.92,15.65c-.51-1.14-1.25-2.22-2.27-2.96,1.02-.75,1.76-1.83,2.27-2.97.52,1.14,1.25,2.22,2.27,2.97-1.02.74-1.75,1.82-2.27,2.96Z"/>
  <path class="st0" d="M13.19,12.69c-1.02.74-1.75,1.82-2.27,2.96-.51-1.14-1.25-2.22-2.27-2.96,1.02-.75,1.76-1.83,2.27-2.97.52,1.14,1.25,2.22,2.27,2.97Z"/>
</svg>