<?xml version="1.0" encoding="UTF-8"?>
<svg id="Layer_1" xmlns="http://www.w3.org/2000/svg" version="1.1" viewBox="0 0 64 64">
  <!-- Generator: Adobe Illustrator 29.3.1, SVG Export Plug-In . SVG Version: 2.1.0 Build 151)  -->
  <defs>
    <style>
      .st0 {
        fill: #fab271;
      }

      .st1 {
        fill: #31323a;
      }

      .st2 {
        fill: #ffcdb2;
      }

      .st3 {
        fill: #fcd67b;
      }
    </style>
  </defs>
  <path class="st2" d="M47.25,50.95l6.86-6.18c1.15-1.38,1.71-3.18,1.53-4.97l-.83-16.97c-.05-.43-.45-.79-.94-.79h-.12c-.5,0-.91.38-.94.88l-1.24,11.24c-.39,2.09-.83,3.57-1.87,4.94-.02.03-.02.05-.04.08-.02.01-.03.02-.05.03-.05.08-.1.15-.16.22l-4.35,4.28c-.4.39-1.03.38-1.42,0-.38-.4-.38-1.03.02-1.42l3.73-3.66-1.3-1.09c-.47-.4-1.15-.4-1.62,0l-6.41,5.61c-.65.69-1.04,1.66-1.04,2.69v13.41h-1v2.8h11.96v-2.8h-1.1v-7.55c0-.28.12-.55.33-.74Z"/>
  <path class="st2" d="M26.94,59.24v-13.41c0-1.03-.39-2-1.11-2.75l-6.36-5.57c-.45-.38-1.13-.38-1.6.02l-1.3,1.09,3.73,3.66c.4.39.4,1.02.02,1.42-.39.39-1.03.4-1.42,0l-4.28-4.21c-.08-.09-.14-.18-.21-.27-.02-.02-.05-.03-.07-.05-.03-.04-.04-.08-.06-.12-1.04-1.39-1.47-2.85-1.84-4.82l-1.24-11.27c-.04-.55-.45-.93-.95-.93h-.12c-.49,0-.89.36-.94.84l-.82,16.87c-.19,1.84.37,3.64,1.52,5.02l6.86,6.18c.21.19.33.46.33.74v7.55h-1.24v2.8h11.96v-2.8h-.86Z"/>
  <path class="st1" d="M28.94,45.83v15.21c0,.56-.45,1-1,1-.05,0-.1,0-.14-.01-.49-.07-.86-.48-.86-.99v-15.21c0-1.03-.39-2-1.11-2.75l-6.36-5.57c-.45-.38-1.13-.38-1.6.02l-1.3,1.09,3.73,3.66c.4.39.4,1.02.02,1.42-.39.39-1.03.4-1.42,0l-4.28-4.21c-.08-.09-.14-.18-.21-.27-.02-.02-.05-.03-.07-.05-.03-.04-.04-.08-.06-.12-1.04-1.39-1.47-2.85-1.84-4.82l-1.24-11.27c-.04-.55-.45-.93-.95-.93h-.12c-.49,0-.89.36-.94.84l-.82,16.87c-.19,1.84.37,3.64,1.52,5.02l6.86,6.18c.21.19.33.46.33.74v9.35c0,.56-.45,1-1,1-.08,0-.16-.01-.24-.03-.44-.11-.76-.49-.76-.97v-8.9l-6.58-5.94s-.06-.05-.09-.09c-1.53-1.79-2.27-4.16-2.04-6.51l.83-16.86c.15-1.57,1.41-2.7,2.93-2.7h.12c1.55,0,2.84,1.21,2.94,2.75l1.23,11.15c.23,1.26.5,2.23.94,3.08l1.23-1.03c1.21-1.01,2.97-1.01,4.18,0l6.45,5.65c1.13,1.18,1.72,2.65,1.72,4.19Z"/>
  <path class="st1" d="M55.59,46.11s-.06.07-.09.09l-6.58,5.94v8.9c0,.52-.4.94-.9.99-.03.01-.07.01-.1.01-.55,0-1-.44-1-1v-9.35c0-.28.12-.55.33-.74l6.86-6.18c1.15-1.38,1.71-3.18,1.53-4.97l-.83-16.97c-.05-.43-.45-.79-.94-.79h-.12c-.5,0-.91.38-.94.88l-1.24,11.24c-.39,2.09-.83,3.57-1.87,4.94-.02.03-.02.05-.04.08-.02.01-.03.02-.05.03-.05.08-.1.15-.16.22l-4.35,4.28c-.4.39-1.03.38-1.42,0-.38-.4-.38-1.03.02-1.42l3.73-3.66-1.3-1.09c-.47-.4-1.15-.4-1.62,0l-6.41,5.61c-.65.69-1.04,1.66-1.04,2.69v15.21c0,.56-.45,1-1,1s-1-.44-1-1v-15.21c0-1.54.59-3.01,1.66-4.13l6.49-5.69c1.23-1.03,2.99-1.03,4.2-.02l1.25,1.05c.43-.85.69-1.85.93-3.17l1.22-11.12c.1-1.5,1.39-2.71,2.94-2.71h.12c1.52,0,2.78,1.13,2.93,2.65l.83,16.96c.23,2.3-.51,4.67-2.04,6.46Z"/>
  <path class="st1" d="M48.89,14.74c-4.33,0-4.81-6.56-4.82-6.63-.03-.53-.47-.93-.99-.93s-.97.4-1,.93c0,.03-.13,1.7-.8,3.36h-18.37c-.44,0-.83.29-.96.72l-4.99,17.05c-.09.3-.03.62.16.88.19.25.49.4.8.4h29.19c.32,0,.61-.15.8-.4.19-.26.25-.58.16-.88l-2.9-9.89c.71-1.39,1.86-2.61,3.72-2.61.55,0,1-.45,1-1s-.45-1-1-1ZM45.78,28.52h-26.53l4.41-15.05h16.41c-.69.74-1.59,1.27-2.81,1.27-.55,0-1,.45-1,1s.45,1,1,1c4.33,0,4.81,6.57,4.82,6.63.03.53.47.94,1,.94s.96-.41.99-.94c0-.01.02-.19.06-.47l1.65,5.62ZM43.26,18.72s-.05.09-.07.15c-.04.07-.08.15-.11.23-.57-1.3-1.39-2.54-2.56-3.36,1.01-.71,1.75-1.73,2.3-2.84.01-.03.03-.05.04-.07.07-.15.15-.29.22-.45.56,1.31,1.38,2.54,2.55,3.36-1.05.74-1.81,1.82-2.37,2.98Z"/>
  <path class="st0" d="M45.63,15.74c-1.05.74-1.81,1.82-2.37,2.98-.03.04-.05.09-.07.15-.04.07-.08.15-.11.23-.57-1.3-1.39-2.54-2.56-3.36,1.01-.71,1.75-1.73,2.3-2.84.01-.03.03-.05.04-.07.07-.15.15-.29.22-.45.56,1.31,1.38,2.54,2.55,3.36Z"/>
  <path class="st3" d="M45.78,28.52h-26.53l4.41-15.05h16.41c-.69.74-1.59,1.27-2.81,1.27-.55,0-1,.45-1,1s.45,1,1,1c4.33,0,4.81,6.57,4.82,6.63.03.53.47.94,1,.94s.96-.41.99-.94c0-.01.02-.19.06-.47l1.65,5.62Z"/>
  <path class="st1" d="M20.9,8.09c-3.32,0-3.71-5.15-3.71-5.2-.04-.52-.47-.93-1-.93s-.96.41-1,.93c0,.05-.38,5.2-3.71,5.2-.55,0-1,.45-1,1s.45,1,1,1c3.33,0,3.71,5.15,3.71,5.2.04.52.48.93,1,.93s.96-.41,1-.93c0-.05.39-5.2,3.71-5.2.56,0,1-.45,1-1s-.44-1-1-1ZM16.19,11.36c-.42-.87-.99-1.68-1.75-2.27.76-.6,1.33-1.4,1.75-2.27.42.87,1,1.67,1.75,2.27-.75.59-1.33,1.4-1.75,2.27Z"/>
  <path class="st0" d="M17.94,9.09c-.75.59-1.33,1.4-1.75,2.27-.42-.87-.99-1.68-1.75-2.27.76-.6,1.33-1.4,1.75-2.27.42.87,1,1.67,1.75,2.27Z"/>
</svg>