<?xml version="1.0" encoding="UTF-8"?>
<svg id="Layer_1" xmlns="http://www.w3.org/2000/svg" version="1.1" viewBox="0 0 64 64">
  <!-- Generator: Adobe Illustrator 29.3.1, SVG Export Plug-In . SVG Version: 2.1.0 Build 151)  -->
  <defs>
    <style>
      .st0 {
        fill: #fab271;
      }

      .st1 {
        fill: #31323a;
      }

      .st2 {
        fill: #fcd67b;
      }

      .st3 {
        fill: #dea254;
      }
    </style>
  </defs>
  <path class="st1" d="M51.37,5.35h-6.36s-.04-.01-.06-.01h-6c-.54-1.26-.65-2.48-.66-2.58-.03-.53-.47-.93-.99-.93s-.96.4-1,.92c-.01.11-.12,1.33-.66,2.59h-12.86c-3.74,0-6.77,3.05-6.77,6.78v24.39c-.43-1.52-.53-2.77-.53-2.8-.03-.53-.47-.94-1-.94s-.96.41-1,.94c0,.08-.6,8.29-6.08,8.29-.56,0-1,.44-1,1s.44,1,1,1c5.48,0,6.08,8.2,6.08,8.29.04.52.48.93,1,.93s.97-.41,1-.93c0-.04.1-1.3.53-2.82v5.93c0,3.73,3.03,6.77,6.77,6.77h28.59c3.44,0,6.23-3.31,6.23-7.37V12.72c0-4.06-2.79-7.37-6.23-7.37ZM37.3,6.53c.51,1.04,1.25,2.03,2.26,2.72-1.01.7-1.75,1.69-2.26,2.73-.52-1.04-1.25-2.03-2.27-2.73,1.02-.69,1.75-1.68,2.27-2.72ZM16.33,44.46c-.05.05-.08.1-.12.16-.74.91-1.31,1.96-1.73,3.05-.7-1.84-1.83-3.61-3.51-4.67,1.68-1.06,2.81-2.84,3.51-4.67.42,1.07.98,2.12,1.71,3.02.04.07.09.14.15.19.48.56,1.03,1.06,1.66,1.46-.63.4-1.19.89-1.67,1.46ZM49.73,55.4c0,2.63-2.14,4.77-4.78,4.77h-22.17c-2.63,0-4.77-2.14-4.77-4.77v-9.8c.86-.94,2.01-1.6,3.56-1.6.55,0,1-.45,1-1s-.45-1-1-1c-1.55,0-2.7-.67-3.56-1.61V12.12c0-2.63,2.14-4.78,4.77-4.78h11.45c-.65.54-1.48.91-2.58.91-.55,0-1,.45-1,1s.45,1,1,1c4.18,0,4.63,5.28,4.65,5.5.04.52.47.93,1,.93s.96-.41.99-.93c.02-.22.45-5.5,4.65-5.5.56,0,1-.44,1-1s-.44-1-1-1c-1.09,0-1.93-.37-2.57-.91h2.61s2,.01,2,.01c2.62.01,4.75,2.15,4.75,4.77v43.28ZM55.6,54.8c0,2.96-1.89,5.37-4.23,5.37h-1.62c1.22-1.22,1.98-2.91,1.98-4.77V12.12c0-1.86-.75-3.55-1.97-4.77h1.61c2.34,0,4.23,2.41,4.23,5.37v42.08Z"/>
  <path class="st0" d="M39.56,9.25c-1.01.7-1.75,1.69-2.26,2.73-.52-1.04-1.25-2.03-2.27-2.73,1.02-.69,1.75-1.68,2.27-2.72.51,1.04,1.25,2.03,2.26,2.72Z"/>
  <rect class="st2" x="30.53" y="29.38" width="2.25" height="5.13"/>
  <path class="st0" d="M18,43c-.63.4-1.19.89-1.67,1.46-.05.05-.08.1-.12.16-.74.91-1.31,1.96-1.73,3.05-.7-1.84-1.83-3.61-3.51-4.67,1.68-1.06,2.81-2.84,3.51-4.67.42,1.07.98,2.12,1.71,3.02.04.07.09.14.15.19.48.56,1.03,1.06,1.66,1.46Z"/>
  <path class="st2" d="M44.98,7.35h-2.01s-2.6-.01-2.6-.01c.64.54,1.48.91,2.57.91.56,0,1,.45,1,1s-.44,1-1,1c-4.2,0-4.63,5.28-4.65,5.5-.03.52-.47.93-.99.93s-.96-.41-1-.93c-.02-.22-.47-5.5-4.65-5.5-.55,0-1-.44-1-1s.45-1,1-1c1.1,0,1.93-.37,2.58-.91h-11.45c-2.63,0-4.77,2.15-4.77,4.78v28.27c.86.94,2.01,1.61,3.56,1.61.55,0,1,.44,1,1s-.45,1-1,1c-1.55,0-2.7.66-3.56,1.6v9.8c0,2.63,2.14,4.77,4.77,4.77h22.17c2.64,0,4.78-2.14,4.78-4.77V12.12c0-2.62-2.13-4.76-4.75-4.77ZM46,10.79h.43c.56,0,1,.45,1,1s-.44,1-1,1h-.43c-.56,0-1-.45-1-1s.44-1,1-1ZM20.35,11.79c0-.55.45-1,1-1h.44c.55,0,1,.45,1,1s-.45,1-1,1h-.44c-.55,0-1-.45-1-1ZM21.79,57.04h-.44c-.55,0-1-.45-1-1s.45-1,1-1h.44c.55,0,1,.44,1,1s-.45,1-1,1ZM25.83,34.51v-1.56h-.82c-.55,0-1-.45-1-1s.45-1,1-1h1.82c.55,0,1,.45,1,1v2.83c0,.95-.79,1.73-1.76,1.73h-3.14c-1.01,0-1.84-.81-1.84-1.81v-5.5c0-1,.83-1.82,1.84-1.82h3.9c.55,0,1,.45,1,1s-.45,1-1,1h-3.74v5.13h2.74ZM34.78,34.73c0,.98-.8,1.78-1.78,1.78h-2.7c-.98,0-1.77-.8-1.77-1.78v-5.57c0-.98.79-1.78,1.77-1.78h2.7c.98,0,1.78.8,1.78,1.78v5.57ZM39.77,36.51h-3.14c-.55,0-1-.44-1-1v-7.13c0-.55.45-1,1-1s1,.45,1,1v6.13h2.14c.55,0,1,.45,1,1s-.45,1-1,1ZM46.43,57.04h-.43c-.56,0-1-.45-1-1s.44-1,1-1h.43c.56,0,1,.44,1,1s-.44,1-1,1ZM47.87,33.51c0,1.66-1.34,3-3,3h-2.25c-.56,0-1-.44-1-1v-7.13c0-.55.44-1,1-1h2.25c1.66,0,3,1.35,3,3v3.13Z"/>
  <path class="st1" d="M27.83,31.95v2.83c0,.95-.79,1.73-1.76,1.73h-3.14c-1.01,0-1.84-.81-1.84-1.81v-5.5c0-1,.83-1.82,1.84-1.82h3.9c.55,0,1,.45,1,1s-.45,1-1,1h-3.74v5.13h2.74v-1.56h-.82c-.55,0-1-.45-1-1s.45-1,1-1h1.82c.55,0,1,.45,1,1Z"/>
  <path class="st1" d="M33,27.38h-2.7c-.98,0-1.77.8-1.77,1.78v5.57c0,.98.79,1.78,1.77,1.78h2.7c.98,0,1.78-.8,1.78-1.78v-5.57c0-.98-.8-1.78-1.78-1.78ZM32.78,34.51h-2.25v-5.13h2.25v5.13Z"/>
  <path class="st3" d="M55.6,12.72v42.08c0,2.96-1.89,5.37-4.23,5.37h-1.62c1.22-1.22,1.98-2.91,1.98-4.77V12.12c0-1.86-.75-3.55-1.97-4.77h1.61c2.34,0,4.23,2.41,4.23,5.37Z"/>
  <path class="st1" d="M44.87,27.38h-2.25c-.56,0-1,.45-1,1v7.13c0,.56.44,1,1,1h2.25c1.66,0,3-1.34,3-3v-3.13c0-1.65-1.34-3-3-3ZM45.87,33.51c0,.55-.45,1-1,1h-1.25v-5.13h1.25c.55,0,1,.45,1,1v3.13Z"/>
  <path class="st2" d="M45.87,30.38v3.13c0,.55-.45,1-1,1h-1.25v-5.13h1.25c.55,0,1,.45,1,1Z"/>
  <path class="st1" d="M40.77,35.51c0,.56-.45,1-1,1h-3.14c-.55,0-1-.44-1-1v-7.13c0-.55.45-1,1-1s1,.45,1,1v6.13h2.14c.55,0,1,.45,1,1Z"/>
  <path class="st1" d="M22.79,11.79c0,.55-.45,1-1,1h-.44c-.55,0-1-.45-1-1s.45-1,1-1h.44c.55,0,1,.45,1,1Z"/>
  <path class="st1" d="M47.43,11.79c0,.55-.44,1-1,1h-.43c-.56,0-1-.45-1-1s.44-1,1-1h.43c.56,0,1,.45,1,1Z"/>
  <path class="st1" d="M22.79,56.04c0,.55-.45,1-1,1h-.44c-.55,0-1-.45-1-1s.45-1,1-1h.44c.55,0,1,.44,1,1Z"/>
  <path class="st1" d="M47.43,56.04c0,.55-.44,1-1,1h-.43c-.56,0-1-.45-1-1s.44-1,1-1h.43c.56,0,1,.44,1,1Z"/>
</svg>