<?xml version="1.0" encoding="UTF-8"?>
<svg id="Layer_1" xmlns="http://www.w3.org/2000/svg" version="1.1" viewBox="0 0 64 64">
  <!-- Generator: Adobe Illustrator 29.3.1, SVG Export Plug-In . SVG Version: 2.1.0 Build 151)  -->
  <defs>
    <style>
      .st0 {
        fill: #9e9d9d;
      }

      .st1 {
        fill: #fab271;
      }

      .st2 {
        fill: #31323a;
      }

      .st3 {
        fill: #e2e5ea;
      }

      .st4 {
        fill: #fcd67b;
      }

      .st5 {
        fill: #dea254;
      }
    </style>
  </defs>
  <path class="st2" d="M59,25.64h-.79l-2.29-5.51c-.14-.32-.43-.55-.78-.6l-4.79-.69-.64-2.97c-.01-.08-.04-.15-.08-.23l-1.5-3.06c-.13-.29-.4-.49-.71-.55l-4.94-.92-2.01-1.83c-.2-.19-.48-.29-.76-.26l-6.71.59c-.3.02-.57.18-.74.43l-3.09,4.52h-8.41c-.31,0-.59.14-.78.37l-3.34,4.14-5.32,1.74c-.25.08-.45.25-.57.47l-2.33,4.36h-3.42c-1.46,0-2.66,1.19-2.66,2.66v.84c0,1.47,1.2,2.67,2.66,2.67h.84l3.06,21.05c.26,1.84,1.84,3.22,3.68,3.27.62,3.04,3.31,5.34,6.54,5.34s5.91-2.29,6.53-5.33h10.99c.63,3.04,3.32,5.33,6.54,5.33s5.91-2.29,6.54-5.33h1.6c1.88,0,3.51-1.41,3.78-3.28l3.05-21.05h.85c1.46,0,2.66-1.2,2.66-2.67v-.84c0-1.47-1.2-2.66-2.66-2.66ZM12.32,22.58l5.23-1.7c.18-.06.34-.17.46-.32l3.23-4h8.45c.33,0,.64-.16.83-.44l3.12-4.56,5.81-.51,1.89,1.73c.14.12.31.21.49.24l4.73.89,1.22,2.5.76,3.53c.09.41.42.73.84.78l4.91.71,1.75,4.21H10.69l1.63-3.06ZM19.12,59.47c-2.58,0-4.68-2.1-4.68-4.68s2.1-4.67,4.68-4.67,4.67,2.1,4.67,4.67-2.1,4.68-4.67,4.68ZM43.18,59.47c-2.58,0-4.67-2.1-4.67-4.68s2.09-4.67,4.67-4.67,4.68,2.1,4.68,4.67-2.1,4.68-4.68,4.68ZM53.12,52.58c-.13.89-.9,1.56-1.8,1.56h-1.5c-.33-3.37-3.18-6.02-6.64-6.02s-6.31,2.65-6.64,6.02h-10.78c-.33-3.37-3.18-6.02-6.64-6.02s-6.31,2.64-6.64,6c-.81-.09-1.48-.72-1.6-1.54l-3.02-20.77h48.27l-3.01,20.77ZM59.66,29.14c0,.37-.3.67-.66.67h-1.71s-50.58-.01-50.58-.01c-.01,0-.01.01-.02.01h-1.69c-.36,0-.66-.3-.66-.67v-.84c0-.37.3-.66.66-.66h54c.36,0,.66.29.66.66v.84Z"/>
  <path class="st0" d="M19.12,50.12c-2.58,0-4.68,2.1-4.68,4.67s2.1,4.68,4.68,4.68,4.67-2.1,4.67-4.68-2.1-4.67-4.67-4.67ZM19.12,57.58c-1.54,0-2.79-1.25-2.79-2.79s1.25-2.78,2.79-2.78,2.78,1.25,2.78,2.78-1.25,2.79-2.78,2.79Z"/>
  <path class="st0" d="M43.18,50.12c-2.58,0-4.67,2.1-4.67,4.67s2.09,4.68,4.67,4.68,4.68-2.1,4.68-4.68-2.1-4.67-4.68-4.67ZM43.18,57.58c-1.54,0-2.79-1.25-2.79-2.79s1.25-2.78,2.79-2.78,2.79,1.25,2.79,2.78-1.25,2.79-2.79,2.79Z"/>
  <path class="st4" d="M54.29,21.43l-4.91-.71c-.42-.05-.75-.37-.84-.78l-.76-3.53-1.22-2.5-4.73-.89c-.18-.03-.35-.12-.49-.24l-1.89-1.73-5.81.51-3.12,4.56c-.19.28-.5.44-.83.44h-8.45l-3.23,4c-.12.15-.28.26-.46.32l-5.23,1.7-1.63,3.06h45.35l-1.75-4.21ZM20.82,23.8h-1.07c-.56,0-1-.45-1-1s.44-1,1-1h1.07c.56,0,1,.45,1,1s-.44,1-1,1ZM30.85,21.78l-1.08.69c-.16.11-.35.16-.53.16-.33,0-.66-.17-.85-.47-.29-.46-.16-1.08.31-1.38l1.07-.68c.47-.3,1.09-.16,1.38.3.3.47.16,1.09-.3,1.38ZM35.96,15.95c0-.55.45-1,1-1h1.08c.55,0,1,.45,1,1s-.45,1-1,1h-1.08c-.55,0-1-.45-1-1ZM39.12,23.41h-1.08c-.55,0-1-.45-1-1s.45-1,1-1h1.08c.55,0,1,.45,1,1s-.45,1-1,1ZM46.94,24.24h-1.07c-.56,0-1-.44-1-1s.44-1,1-1h1.07c.55,0,1,.45,1,1s-.45,1-1,1Z"/>
  <path class="st3" d="M59.66,28.3v.84c0,.37-.3.67-.66.67h-1.71s-50.58-.01-50.58-.01c-.01,0-.01.01-.02.01h-1.69c-.36,0-.66-.3-.66-.67v-.84c0-.37.3-.66.66-.66h54c.36,0,.66.29.66.66Z"/>
  <path class="st5" d="M56.13,31.81l-3.01,20.77c-.13.89-.9,1.56-1.8,1.56h-1.5c-.33-3.37-3.18-6.02-6.64-6.02s-6.31,2.65-6.64,6.02h-10.78c-.33-3.37-3.18-6.02-6.64-6.02s-6.31,2.64-6.64,6c-.81-.09-1.48-.72-1.6-1.54l-3.02-20.77h48.27Z"/>
  <path class="st2" d="M19.29,9.33c-3.3,0-3.66-3.85-3.68-4.01-.04-.52-.47-.92-1-.92s-.95.4-.99.92c-.02.16-.35,4.01-3.68,4.01-.56,0-1,.45-1,1s.44,1,1,1c3.3,0,3.66,3.85,3.68,4.01.04.52.47.92.99.92s.96-.4,1-.92c.01-.17.35-4.01,3.68-4.01.56,0,1-.45,1-1s-.44-1-1-1ZM14.61,12.03c-.37-.63-.86-1.23-1.49-1.7.63-.47,1.12-1.07,1.49-1.71.38.64.87,1.24,1.5,1.71-.63.47-1.12,1.07-1.5,1.7Z"/>
  <path class="st1" d="M16.11,10.33c-.63.47-1.12,1.07-1.5,1.7-.37-.63-.86-1.23-1.49-1.7.63-.47,1.12-1.07,1.49-1.71.38.64.87,1.24,1.5,1.71Z"/>
  <path class="st2" d="M56.03,7.46c-3.31,0-3.67-3.85-3.69-4.01-.04-.52-.47-.92-.99-.92s-.96.4-1,.92c0,.17-.35,4.01-3.68,4.01-.56,0-1,.45-1,1s.44,1,1,1c3.3,0,3.67,3.85,3.68,4.01.04.52.47.92,1,.92s.95-.4.99-.92c.02-.16.36-4.01,3.69-4.01.55,0,1-.44,1-1s-.45-1-1-1ZM51.35,10.17c-.38-.64-.87-1.24-1.5-1.71.63-.47,1.12-1.07,1.5-1.7.37.63.86,1.23,1.49,1.7-.63.47-1.12,1.07-1.49,1.71Z"/>
  <path class="st1" d="M52.84,8.46c-.63.47-1.12,1.07-1.49,1.71-.38-.64-.87-1.24-1.5-1.71.63-.47,1.12-1.07,1.5-1.7.37.63.86,1.23,1.49,1.7Z"/>
  <path class="st2" d="M30.85,21.78l-1.08.69c-.16.11-.35.16-.53.16-.33,0-.66-.17-.85-.47-.29-.46-.16-1.08.31-1.38l1.07-.68c.47-.3,1.09-.16,1.38.3.3.47.16,1.09-.3,1.38Z"/>
  <path class="st2" d="M39.04,15.95c0,.55-.45,1-1,1h-1.08c-.55,0-1-.45-1-1s.45-1,1-1h1.08c.55,0,1,.45,1,1Z"/>
  <path class="st2" d="M40.12,22.41c0,.55-.45,1-1,1h-1.08c-.55,0-1-.45-1-1s.45-1,1-1h1.08c.55,0,1,.45,1,1Z"/>
  <path class="st2" d="M47.94,23.24c0,.56-.45,1-1,1h-1.07c-.56,0-1-.44-1-1s.44-1,1-1h1.07c.55,0,1,.45,1,1Z"/>
  <path class="st2" d="M21.82,22.8c0,.55-.44,1-1,1h-1.07c-.56,0-1-.45-1-1s.44-1,1-1h1.07c.56,0,1,.45,1,1Z"/>
  <path class="st2" d="M43.18,52.01c-1.54,0-2.79,1.25-2.79,2.78s1.25,2.79,2.79,2.79,2.79-1.25,2.79-2.79-1.25-2.78-2.79-2.78ZM43.18,55.58c-.43,0-.79-.35-.79-.79s.36-.78.79-.78.79.35.79.78-.35.79-.79.79Z"/>
  <path class="st3" d="M43.97,54.79c0,.44-.35.79-.79.79s-.79-.35-.79-.79.36-.78.79-.78.79.35.79.78Z"/>
  <path class="st2" d="M19.12,52.01c-1.54,0-2.79,1.25-2.79,2.78s1.25,2.79,2.79,2.79,2.78-1.25,2.78-2.79-1.25-2.78-2.78-2.78ZM19.12,55.58c-.44,0-.79-.35-.79-.79s.35-.78.79-.78.78.35.78.78-.35.79-.78.79Z"/>
  <path class="st3" d="M19.9,54.79c0,.44-.35.79-.78.79s-.79-.35-.79-.79.35-.78.79-.78.78.35.78.78Z"/>
</svg>