<?xml version="1.0" encoding="UTF-8"?>
<svg id="Layer_1" xmlns="http://www.w3.org/2000/svg" version="1.1" viewBox="0 0 64 64">
  <!-- Generator: Adobe Illustrator 29.3.1, SVG Export Plug-In . SVG Version: 2.1.0 Build 151)  -->
  <defs>
    <style>
      .st0 {
        fill: #9e9d9d;
      }

      .st1 {
        fill: #fab271;
      }

      .st2 {
        fill: #31323a;
      }

      .st3 {
        fill: #e2e5ea;
      }

      .st4 {
        fill: #fcd67b;
      }

      .st5 {
        fill: #dea254;
      }
    </style>
  </defs>
  <path class="st2" d="M60.42,40.67l-17.13-22.12.04-.04c.69-.53,1.12-1.3,1.23-2.16.02-.11.01-.21.01-.32,1.41-1.28,7.75-6.61,14.88-5.76.44.06.86-.19,1.04-.59.17-.4.06-.88-.27-1.16-.1-.09-10.02-8.3-21.39.12-.1-.02-.19-.05-.29-.06-.86-.11-1.71.12-2.4.65l-4.82,3.74c-.79.61-1.2,1.52-1.24,2.45-10.99,8.9-5.52,20.55-5.46,20.67.17.35.52.56.9.56.05,0,.1,0,.16,0,.43-.07.77-.42.83-.85.96-7.1,7.66-11.9,9.28-12.96.11.02.21.06.32.07.14.02.28.03.42.03.52,0,1.02-.13,1.48-.37l17.17,22.18c.46.59,1.12.97,1.86,1.06.12.02.24.02.36.02.62,0,1.22-.2,1.71-.58l.81-.63c.6-.46.97-1.12,1.07-1.87.09-.74-.11-1.47-.57-2.07ZM56.06,8.28c-5.6.63-10.18,3.99-12.16,5.67l-3.2-4.14-.03-.03c6.43-4.4,12.13-3.04,15.39-1.5ZM25.43,32.01c-.68-3.54-.56-9.4,5.29-14.52.01.01.02.02.02.03l3.21,4.14c-2.12,1.5-6.51,5.09-8.52,10.35ZM37.61,20.41l-.33.25c-.26.21-.59.3-.92.26-.33-.05-.62-.21-.83-.48l-3.2-4.14c-.43-.54-.33-1.33.22-1.75l4.82-3.74c.22-.17.48-.26.76-.26.05,0,.11.01.16.01.33.05.62.21.83.48l3.21,4.14c.2.26.29.59.25.92-.04.33-.21.63-.48.83l-4.49,3.48ZM58.7,43.03l-.81.62c-.17.13-.38.19-.59.17-.22-.03-.41-.14-.54-.31l-17.14-22.13,2.08-1.61,17.14,22.13c.13.17.19.38.16.59-.02.22-.13.4-.3.54Z"/>
  <path class="st0" d="M56.06,8.28c-5.6.63-10.18,3.99-12.16,5.67l-3.2-4.14-.03-.03c6.43-4.4,12.13-3.04,15.39-1.5Z"/>
  <path class="st5" d="M59,42.49c-.02.22-.13.4-.3.54l-.81.62c-.17.13-.38.19-.59.17-.22-.03-.41-.14-.54-.31l-17.14-22.13,2.08-1.61,17.14,22.13c.13.17.19.38.16.59Z"/>
  <path class="st3" d="M42.58,16.1c-.04.33-.21.63-.48.83l-4.49,3.48-.33.25c-.26.21-.59.3-.92.26-.33-.05-.62-.21-.83-.48l-3.2-4.14c-.43-.54-.33-1.33.22-1.75l4.82-3.74c.22-.17.48-.26.76-.26.05,0,.11.01.16.01.33.05.62.21.83.48l3.21,4.14c.2.26.29.59.25.92Z"/>
  <path class="st0" d="M33.95,21.66c-2.12,1.5-6.51,5.09-8.52,10.35-.68-3.54-.56-9.4,5.29-14.52.01.01.02.02.02.03l3.21,4.14Z"/>
  <path class="st2" d="M17.98,33.47c-.4.38-.41,1.02-.02,1.41l2.21,2.27c.2.2.46.3.72.3s.5-.09.7-.28c.4-.38.41-1.02.02-1.41l-2.21-2.27c-.38-.4-1.02-.41-1.41-.02Z"/>
  <path class="st2" d="M32.32,30.63l-2.27,2.41c-.38.4-.36,1.03.04,1.41.19.18.44.27.69.27.27,0,.53-.11.73-.31l2.27-2.41c.38-.4.36-1.03-.04-1.41-.4-.38-1.03-.36-1.41.04Z"/>
  <path class="st2" d="M14.33,34.65c-2.94,0-3.28-4.76-3.28-4.8-.04-.53-.47-.94-1-.94s-.96.41-1,.94c0,.04-.34,4.8-3.28,4.8-.55,0-1,.45-1,1s.45,1,1,1c2.94,0,3.28,4.76,3.28,4.81.04.52.47.93,1,.93s.96-.41,1-.93c0-.05.34-4.81,3.28-4.81.55,0,1-.44,1-1s-.45-1-1-1ZM10.05,37.58c-.37-.73-.85-1.41-1.48-1.93.63-.52,1.11-1.2,1.48-1.93.37.73.85,1.41,1.48,1.93-.63.52-1.11,1.2-1.48,1.93Z"/>
  <path class="st1" d="M11.53,35.65c-.63.52-1.11,1.2-1.48,1.93-.37-.73-.85-1.41-1.48-1.93.63-.52,1.11-1.2,1.48-1.93.37.73.85,1.41,1.48,1.93Z"/>
  <path class="st2" d="M22.56,17.77c-2.93,0-3.27-4.76-3.28-4.81-.03-.52-.47-.93-.99-.93s-.97.41-1,.93c0,.05-.35,4.81-3.28,4.81-.56,0-1,.44-1,1s.44,1,1,1c2.93,0,3.27,4.76,3.28,4.8.03.53.47.94,1,.94s.96-.41.99-.94c0-.04.35-4.8,3.28-4.8.56,0,1-.45,1-1s-.44-1-1-1ZM18.29,20.7c-.37-.73-.86-1.41-1.48-1.93.62-.52,1.11-1.2,1.48-1.93.36.73.85,1.41,1.47,1.93-.62.52-1.11,1.2-1.47,1.93Z"/>
  <path class="st1" d="M19.76,18.77c-.62.52-1.11,1.2-1.47,1.93-.37-.73-.86-1.41-1.48-1.93.62-.52,1.11-1.2,1.48-1.93.36.73.85,1.41,1.47,1.93Z"/>
  <path class="st2" d="M60.75,57.18h-2.14l-4.18-4.36-2.57-3.38c-.12-.16-.28-.28-.46-.34l-4.11-1.44-3.53-2.62c.61-.68,1.42-1.16,2.49-1.16.55,0,1-.45,1-1s-.45-1-1-1c-3.89,0-4.33-6.16-4.33-6.22-.04-.53-.47-.94-1-.94s-.97.41-1,.94c0,.04-.23,3.29-1.85,5.07l-6.7-3.49c-.29-.15-.64-.15-.93.01l-5.96,3.18-6.32.88c-.33.05-.61.25-.76.55l-2.96,6.01-7.16,2.92c-.28.11-.5.35-.58.64l-1.68,5.75h-1.77c-.55,0-1,.45-1,1s.45,1,1,1h2.52s.01,0,.01,0h52.4s0,.01.01.01h0s2.56-.01,2.56-.01c.55,0,1-.44,1-1s-.45-1-1-1ZM38.78,42.79c.08-.05.15-.12.22-.19.83-.73,1.47-1.68,1.92-2.7.51,1.15,1.23,2.24,2.24,2.98-.62.46-1.12,1.06-1.55,1.71-.01.02-.04.03-.06.06-.03.05-.05.1-.07.15-.21.35-.4.7-.56,1.06-.51-1.15-1.24-2.23-2.24-2.98.03-.03.06-.06.1-.09ZM7.1,57.18l1.38-4.72,7.06-2.88c.23-.09.41-.26.52-.48l2.9-5.88,5.97-.83c.12-.02.23-.06.33-.11l5.65-3.02,4.98,2.59c-.1.01-.2.03-.31.03-.55,0-1,.45-1,1s.45,1,1,1c3.9,0,4.34,6.16,4.34,6.22.03.53.47.94,1,.94s.96-.41,1-.94c0-.03.13-1.73.8-3.34l3.5,2.6c.08.06.17.11.27.14l3.96,1.39,2.43,3.19s.04.05.07.08l2.89,3.02H7.1Z"/>
  <path class="st1" d="M43.16,42.88c-.62.46-1.12,1.06-1.55,1.71-.01.02-.04.03-.06.06-.03.05-.05.1-.07.15-.21.35-.4.7-.56,1.06-.51-1.15-1.24-2.23-2.24-2.98.03-.03.06-.06.1-.09.08-.05.15-.12.22-.19.83-.73,1.47-1.68,1.92-2.7.51,1.15,1.23,2.24,2.24,2.98Z"/>
  <path class="st4" d="M55.84,57.18H7.1l1.38-4.72,7.06-2.88c.23-.09.41-.26.52-.48l2.9-5.88,5.97-.83c.12-.02.23-.06.33-.11l5.65-3.02,4.98,2.59c-.1.01-.2.03-.31.03-.55,0-1,.45-1,1s.45,1,1,1c3.9,0,4.34,6.16,4.34,6.22.03.53.47.94,1,.94s.96-.41,1-.94c0-.03.13-1.73.8-3.34l3.5,2.6c.08.06.17.11.27.14l3.96,1.39,2.43,3.19s.04.05.07.08l2.89,3.02Z"/>
</svg>