<?xml version="1.0" encoding="UTF-8"?>
<svg id="Layer_1" xmlns="http://www.w3.org/2000/svg" version="1.1" viewBox="0 0 64 64">
  <!-- Generator: Adobe Illustrator 29.3.1, SVG Export Plug-In . SVG Version: 2.1.0 Build 151)  -->
  <defs>
    <style>
      .st0 {
        fill: #fab271;
      }

      .st1 {
        fill: #31323a;
      }

      .st2 {
        fill: #fcd67b;
      }

      .st3 {
        fill: #dea254;
      }
    </style>
  </defs>
  <path class="st1" d="M58.58,48.45c-.79,0-1.47-.14-2.08-.37,3.01-4.68,4.61-10.07,4.61-15.68,0-16.05-13.06-29.11-29.11-29.11-5.67,0-11.1,1.63-15.81,4.69-.96-2.22-1.16-4.37-1.17-4.56-.04-.52-.47-.92-1-.92s-.95.4-.99.92c-.03.4-.82,9.67-8.32,9.67-.55,0-1,.45-1,1s.45,1,1,1c1.32,0,2.42.3,3.36.77-3.38,4.87-5.18,10.56-5.18,16.54,0,16.05,13.06,29.1,29.11,29.1,6.4,0,12.61-2.11,17.65-5.96.4,1.28.49,2.33.5,2.44.04.52.47.93,1,.93s.96-.41.99-.93c.03-.31.62-7.53,6.44-7.53.55,0,1-.45,1-1s-.45-1-1-1ZM14.02,7.98c.75,1.96,1.96,3.93,3.77,5.3.05.05.1.09.16.13.34.24.7.48,1.08.68-2.52,1.31-4.1,3.72-5.01,6.11-.76-2-2-4.01-3.86-5.38-.03-.03-.04-.06-.07-.08-.02-.01-.05-.02-.07-.03-.32-.23-.65-.44-1.01-.62,2.53-1.31,4.11-3.73,5.01-6.11ZM23.33,13.09c-1.14,0-2.1-.23-2.95-.6,3.51-2.06,7.49-3.15,11.62-3.15,12.71,0,23.05,10.34,23.05,23.06,0,3.68-.88,7.27-2.54,10.5-.29-1.06-.36-1.88-.37-1.98-.03-.52-.47-.93-.99-.93s-.96.41-1,.93c-.02.31-.64,7.53-6.44,7.53-.55,0-1,.45-1,1s.45,1,1,1c.8,0,1.48.14,2.09.38-3.96,2.98-8.8,4.62-13.8,4.62-12.71,0-23.05-10.34-23.05-23.05,0-4.13,1.08-8.12,3.14-11.63.77,2,.92,3.82.94,3.98.04.53.47.93.99.93s.96-.4,1-.93c.03-.39.81-9.66,8.31-9.66.55,0,1-.45,1-1s-.45-1-1-1ZM32,59.5c-14.95,0-27.11-12.16-27.11-27.1,0-5.56,1.67-10.85,4.81-15.39.53.51.98,1.07,1.36,1.67-2.68,4.08-4.11,8.8-4.11,13.72,0,13.81,11.24,25.05,25.05,25.05,5.68,0,11.17-1.95,15.59-5.48.51.49.92,1.05,1.25,1.64-4.77,3.79-10.71,5.89-16.84,5.89ZM51.15,53.79c-.72-1.68-1.86-3.33-3.58-4.34,1.72-1.01,2.86-2.66,3.58-4.34.67,1.59,1.73,3.13,3.29,4.15.02,0,.02.03.04.04.02.02.06.03.08.04.06.04.11.08.17.11-1.72,1.01-2.86,2.66-3.58,4.34ZM53.46,45.29c2.34-3.87,3.59-8.31,3.59-12.89,0-13.82-11.24-25.06-25.05-25.06-4.82,0-9.47,1.38-13.49,3.97-.53-.47-.98-1-1.36-1.57,4.41-2.9,9.52-4.45,14.85-4.45,14.95,0,27.11,12.16,27.11,27.11,0,5.24-1.5,10.26-4.31,14.62-.55-.51-.99-1.1-1.34-1.73Z"/>
  <path class="st3" d="M48.84,53.61c-4.77,3.79-10.71,5.89-16.84,5.89-14.95,0-27.11-12.16-27.11-27.1,0-5.56,1.67-10.85,4.81-15.39.53.51.98,1.07,1.36,1.67-2.68,4.08-4.11,8.8-4.11,13.72,0,13.81,11.24,25.05,25.05,25.05,5.68,0,11.17-1.95,15.59-5.48.51.49.92,1.05,1.25,1.64Z"/>
  <path class="st3" d="M59.11,32.4c0,5.24-1.5,10.26-4.31,14.62-.55-.51-.99-1.1-1.34-1.73,2.34-3.87,3.59-8.31,3.59-12.89,0-13.82-11.24-25.06-25.05-25.06-4.82,0-9.47,1.38-13.49,3.97-.53-.47-.98-1-1.36-1.57,4.41-2.9,9.52-4.45,14.85-4.45,14.95,0,27.11,12.16,27.11,27.11Z"/>
  <path class="st0" d="M54.73,49.45c-1.72,1.01-2.86,2.66-3.58,4.34-.72-1.68-1.86-3.33-3.58-4.34,1.72-1.01,2.86-2.66,3.58-4.34.67,1.59,1.73,3.13,3.29,4.15.02,0,.02.03.04.04.02.02.06.03.08.04.06.04.11.08.17.11Z"/>
  <path class="st0" d="M19.03,14.09c-2.52,1.31-4.1,3.72-5.01,6.11-.76-2-2-4.01-3.86-5.38-.03-.03-.04-.06-.07-.08-.02-.01-.05-.02-.07-.03-.32-.23-.65-.44-1.01-.62,2.53-1.31,4.11-3.73,5.01-6.11.75,1.96,1.96,3.93,3.77,5.3.05.05.1.09.16.13.34.24.7.48,1.08.68Z"/>
  <path class="st2" d="M32,9.34c-4.13,0-8.11,1.09-11.62,3.15.85.37,1.81.6,2.95.6.55,0,1,.45,1,1s-.45,1-1,1c-7.5,0-8.28,9.27-8.31,9.66-.04.53-.47.93-1,.93s-.95-.4-.99-.93c-.02-.16-.17-1.98-.94-3.98-2.06,3.51-3.14,7.5-3.14,11.63,0,12.71,10.34,23.05,23.05,23.05,5,0,9.84-1.64,13.8-4.62-.61-.24-1.29-.38-2.09-.38-.55,0-1-.45-1-1s.45-1,1-1c5.8,0,6.42-7.22,6.44-7.53.04-.52.47-.93,1-.93s.96.41.99.93c.01.1.08.92.37,1.98,1.66-3.23,2.54-6.82,2.54-10.5,0-12.72-10.34-23.06-23.05-23.06ZM38.23,37.18c-.45,2.09-2.85,3.24-5.32,3.48v2.97c0,.55-.45,1-1,1s-1-.45-1-1v-3c-3-.34-4.97-1.98-5.17-4.4-.04-.55.37-1.03.92-1.08.56-.04,1.03.37,1.08.92.18,2.22,2.91,2.56,3.74,2.62,2.31.14,4.54-.75,4.79-1.92.35-1.62.58-2.7-6.46-4.59-3.38-.91-4.33-3.18-4.09-5.01.33-2.47,2.61-4.47,5.19-4.68v-1.63c0-.56.45-1,1-1s1,.44,1,1v1.7c3.66.56,4.77,2.96,4.82,3.07.22.51-.01,1.1-.52,1.32-.5.22-1.08,0-1.31-.5-.05-.1-.91-1.79-3.96-1.98h-.03s-.02-.01-.04-.01c-.17,0-.34,0-.53,0-1.94,0-3.44,1.54-3.63,2.98-.18,1.32.75,2.32,2.62,2.82,6.13,1.65,8.73,3.04,7.9,6.93Z"/>
  <path class="st1" d="M38.23,37.18c-.45,2.09-2.85,3.24-5.32,3.48v2.97c0,.55-.45,1-1,1s-1-.45-1-1v-3c-3-.34-4.97-1.98-5.17-4.4-.04-.55.37-1.03.92-1.08.56-.04,1.03.37,1.08.92.18,2.22,2.91,2.56,3.74,2.62,2.31.14,4.54-.75,4.79-1.92.35-1.62.58-2.7-6.46-4.59-3.38-.91-4.33-3.18-4.09-5.01.33-2.47,2.61-4.47,5.19-4.68v-1.63c0-.56.45-1,1-1s1,.44,1,1v1.7c3.66.56,4.77,2.96,4.82,3.07.22.51-.01,1.1-.52,1.32-.5.22-1.08,0-1.31-.5-.05-.1-.91-1.79-3.96-1.98h-.03s-.02-.01-.04-.01c-.17,0-.34,0-.53,0-1.94,0-3.44,1.54-3.63,2.98-.18,1.32.75,2.32,2.62,2.82,6.13,1.65,8.73,3.04,7.9,6.93Z"/>
</svg>