<?xml version="1.0" encoding="UTF-8"?>
<svg id="Layer_1" xmlns="http://www.w3.org/2000/svg" version="1.1" viewBox="0 0 64 64">
  <!-- Generator: Adobe Illustrator 29.3.1, SVG Export Plug-In . SVG Version: 2.1.0 Build 151)  -->
  <defs>
    <style>
      .st0 {
        fill: #fab271;
      }

      .st1 {
        fill: #31323a;
      }

      .st2 {
        fill: #fcd67b;
      }
    </style>
  </defs>
  <path class="st1" d="M62.83,53.21l-3.4-11.64c-.13-.42-.52-.71-.96-.71h-5.81l-3.19-10.92c-.12-.43-.51-.72-.96-.72h-5.8l-3.2-10.92c-.12-.42-.51-.72-.96-.72h-13.1c-.45,0-.84.3-.96.72l-3.2,10.92h-5.8c-.45,0-.84.29-.96.72l-3.19,10.92h-5.81c-.44,0-.83.29-.96.71l-3.4,11.64c-.09.3-.03.63.16.88s.48.4.8.4h59.74c.32,0,.61-.15.8-.4s.25-.58.16-.88ZM47.76,31.22l2.82,9.64h-17.25l2.82-9.64h11.61ZM32,38.29l-2.07-7.07h4.14l-2.07,7.07ZM26.2,19.58h11.6l2.82,9.64h-17.24l2.82-9.64ZM16.24,31.22h11.61l2.82,9.64H13.42l2.82-9.64ZM3.46,52.49l2.82-9.63h11.61l2.82,9.63H3.46ZM19.97,42.86h4.14l-2.07,7.07-2.07-7.07ZM23.38,52.49l2.82-9.63h11.6l2.82,9.63h-17.24ZM39.89,42.86h4.14l-2.07,7.07-2.07-7.07ZM43.29,52.49l2.82-9.63h11.61l2.82,9.63h-17.25Z"/>
  <polygon class="st2" points="40.62 29.22 23.38 29.22 26.2 19.58 37.8 19.58 40.62 29.22"/>
  <polygon class="st2" points="30.67 40.86 13.42 40.86 16.24 31.22 27.85 31.22 30.67 40.86"/>
  <polygon class="st2" points="50.58 40.86 33.33 40.86 36.15 31.22 47.76 31.22 50.58 40.86"/>
  <polygon class="st2" points="60.54 52.49 43.29 52.49 46.11 42.86 57.72 42.86 60.54 52.49"/>
  <polygon class="st2" points="40.62 52.49 23.38 52.49 26.2 42.86 37.8 42.86 40.62 52.49"/>
  <polygon class="st2" points="20.71 52.49 3.46 52.49 6.28 42.86 17.89 42.86 20.71 52.49"/>
  <path class="st1" d="M16.44,21.49c-3.97,0-4.42-6.07-4.42-6.13-.04-.52-.47-.93-1-.93s-.96.41-1,.93c0,.06-.45,6.13-4.43,6.13-.55,0-1,.45-1,1s.45,1,1,1c3.98,0,4.43,6.06,4.43,6.12.04.53.47.94,1,.94s.96-.41,1-.94c0-.06.45-6.12,4.42-6.12.56,0,1-.45,1-1s-.44-1-1-1ZM11.02,25.45c-.52-1.14-1.25-2.22-2.27-2.96,1.02-.74,1.75-1.82,2.27-2.97.51,1.15,1.25,2.23,2.27,2.97-1.02.74-1.76,1.82-2.27,2.96Z"/>
  <path class="st0" d="M13.29,22.49c-1.02.74-1.76,1.82-2.27,2.96-.52-1.14-1.25-2.22-2.27-2.96,1.02-.74,1.75-1.82,2.27-2.97.51,1.15,1.25,2.23,2.27,2.97Z"/>
  <path class="st1" d="M51.53,10.92c-3.97,0-4.42-6.06-4.43-6.12-.03-.53-.47-.94-.99-.94h-.01c-.52.01-.96.41-.99.94-.01.06-.44,6.12-4.43,6.12-.55,0-1,.45-1,1s.45,1,1,1c3.98,0,4.42,6.07,4.43,6.13.03.52.47.93,1,.93s.96-.41.99-.93c.01-.06.46-6.13,4.43-6.13.55,0,1-.44,1-1s-.45-1-1-1ZM46.11,14.89c-.52-1.15-1.26-2.22-2.27-2.97,1.01-.74,1.75-1.82,2.27-2.96.51,1.14,1.25,2.22,2.27,2.96-1.02.75-1.76,1.82-2.27,2.97Z"/>
  <path class="st0" d="M48.38,11.92c-1.02.75-1.76,1.82-2.27,2.97-.52-1.15-1.26-2.22-2.27-2.97,1.01-.74,1.75-1.82,2.27-2.96.51,1.14,1.25,2.22,2.27,2.96Z"/>
</svg>