<?xml version="1.0" encoding="UTF-8"?>
<svg id="Layer_1" xmlns="http://www.w3.org/2000/svg" version="1.1" viewBox="0 0 64 64">
  <!-- Generator: Adobe Illustrator 29.3.1, SVG Export Plug-In . SVG Version: 2.1.0 Build 151)  -->
  <defs>
    <style>
      .st0 {
        fill: #fab271;
      }

      .st1 {
        fill: #31323a;
      }

      .st2 {
        fill: #fcd67b;
      }

      .st3 {
        fill: #dea254;
      }
    </style>
  </defs>
  <path class="st1" d="M53.97,5.63c0-.1-.02-.19-.06-.29,0-.02,0-.04-.02-.06v-.02c-.05-.1-.11-.18-.19-.26-.02-.02-.04-.04-.07-.06-.06-.06-.13-.11-.21-.15-.03-.01-.06-.03-.09-.04-.11-.04-.23-.07-.35-.07h-20.98c-.12,0-.24.03-.35.07-.03.01-.06.03-.09.04-.08.04-.15.09-.21.15-.03.02-.05.04-.07.06-.08.08-.14.16-.19.26v.02s-.01.04-.02.06c-.04.1-.05.19-.06.29,0,.02-.01.03-.01.05v11.52H11.02c-.12,0-.24.03-.35.07-.03.02-.06.03-.09.05-.08.03-.15.08-.21.14-.03.02-.05.04-.07.06-.08.08-.14.16-.19.27h0s-.01.05-.02.07c-.04.1-.05.19-.06.29,0,.02-.01.04-.01.05v40.12s.01.03.01.05c0,.1.02.19.06.29,0,.02,0,.04.02.06v.02c.05.1.11.18.19.26.02.02.04.04.07.06.06.06.13.11.21.15.03.01.06.03.09.04.11.04.23.07.35.07h20.98c.12,0,.24-.03.35-.07.03-.01.06-.03.09-.04.08-.04.15-.09.21-.15.03-.02.05-.04.07-.06.08-.08.14-.16.19-.26v-.02s.01-.04.02-.06c.04-.1.05-.19.06-.29,0-.02.01-.03.01-.05v-11.52h19.98c.12,0,.24-.03.35-.07.03-.02.06-.03.09-.05.08-.03.15-.08.21-.14.03-.02.05-.04.07-.06.08-.08.14-.16.19-.27h0s.01-.05.02-.08c.04-.09.05-.18.06-.28,0-.02.01-.04.01-.05V5.68s-.01-.03-.01-.05ZM29.83,19.2l-3.19,3.73h-10.26l-3.19-3.73h16.64ZM26.1,24.93v26.66h-9.18v-26.66h9.18ZM12.02,20.91l2.9,3.39v27.92l-2.9,3.39V20.91ZM13.19,57.32l3.19-3.73h10.26l3.19,3.73H13.19ZM31,55.61l-2.9-3.39v-27.92l2.9-3.39v34.7ZM50.81,6.68l-3.19,3.73h-10.26l-3.19-3.73h16.64ZM47.08,12.41v26.66h-9.18V12.41h9.18ZM33,8.39l2.9,3.39v27.92l-2.9,3.39V8.39ZM34.17,44.8l3.19-3.73h10.26l3.19,3.73h-16.64ZM51.98,43.09l-2.9-3.39V11.78l2.9-3.39v34.7Z"/>
  <polygon class="st3" points="14.92 24.3 14.92 52.22 12.02 55.61 12.02 20.91 14.92 24.3"/>
  <polygon class="st3" points="29.83 57.32 13.19 57.32 16.38 53.59 26.64 53.59 29.83 57.32"/>
  <polygon class="st3" points="50.81 44.8 34.17 44.8 37.36 41.07 47.62 41.07 50.81 44.8"/>
  <polygon class="st3" points="51.98 8.39 51.98 43.09 49.08 39.7 49.08 11.78 51.98 8.39"/>
  <polygon class="st3" points="50.81 6.68 47.62 10.41 37.36 10.41 34.17 6.68 50.81 6.68"/>
  <polygon class="st3" points="33 8.39 35.9 11.78 35.9 39.7 33 43.09 33 8.39"/>
  <rect class="st2" x="37.9" y="12.41" width="9.18" height="26.66"/>
  <polygon class="st3" points="31 20.91 31 55.61 28.1 52.22 28.1 24.3 31 20.91"/>
  <polygon class="st3" points="29.83 19.2 26.64 22.93 16.38 22.93 13.19 19.2 29.83 19.2"/>
  <rect class="st2" x="16.92" y="24.93" width="9.18" height="26.66"/>
  <path class="st1" d="M26.22,7.54c-3.33,0-3.71-5.14-3.71-5.19-.04-.53-.47-.94-1-.94s-.96.41-1,.94c0,.05-.38,5.19-3.71,5.19-.55,0-1,.45-1,1s.45,1,1,1c3.33,0,3.71,5.15,3.71,5.2.04.53.47.94,1,.94s.96-.41,1-.94c0-.05.38-5.2,3.71-5.2.56,0,1-.44,1-1s-.44-1-1-1ZM21.51,10.81c-.42-.86-1-1.67-1.75-2.27.75-.59,1.33-1.4,1.75-2.26.42.86.99,1.67,1.75,2.26-.76.6-1.33,1.41-1.75,2.27Z"/>
  <path class="st0" d="M23.26,8.54c-.76.6-1.33,1.41-1.75,2.27-.42-.86-1-1.67-1.75-2.27.75-.59,1.33-1.4,1.75-2.26.42.86.99,1.67,1.75,2.26Z"/>
  <path class="st1" d="M47.2,54.46c-3.33,0-3.71-5.15-3.71-5.2-.04-.53-.47-.94-1-.94s-.96.41-1,.94c0,.05-.38,5.2-3.71,5.2-.56,0-1,.44-1,1s.44,1,1,1c3.33,0,3.71,5.14,3.71,5.19.04.53.47.94,1,.94s.96-.41,1-.94c0-.05.38-5.19,3.71-5.19.55,0,1-.45,1-1s-.45-1-1-1ZM42.49,57.72c-.42-.86-.99-1.67-1.75-2.26.76-.6,1.33-1.41,1.75-2.27.42.86,1,1.67,1.75,2.27-.75.59-1.33,1.4-1.75,2.26Z"/>
  <path class="st0" d="M44.24,55.46c-.75.59-1.33,1.4-1.75,2.26-.42-.86-.99-1.67-1.75-2.26.76-.6,1.33-1.41,1.75-2.27.42.86,1,1.67,1.75,2.27Z"/>
</svg>