<?xml version="1.0" encoding="UTF-8"?>
<svg id="Layer_1" xmlns="http://www.w3.org/2000/svg" version="1.1" viewBox="0 0 64 64">
  <!-- Generator: Adobe Illustrator 29.3.1, SVG Export Plug-In . SVG Version: 2.1.0 Build 151)  -->
  <defs>
    <style>
      .st0 {
        fill: #fab271;
      }

      .st1 {
        fill: #31323a;
      }

      .st2 {
        fill: #fcd67b;
      }

      .st3 {
        fill: #dea254;
      }
    </style>
  </defs>
  <path class="st1" d="M60.91,41.36c0-1.67-1.36-3.02-3.02-3.02h-16.57c-.49,0-.95.12-1.36.33.21-.41.34-.86.34-1.35v-2.74c0-.78-.31-1.49-.79-2.02.48-.54.79-1.25.79-2.03v-2.74c0-1.66-1.36-3.02-3.02-3.02h-16.57c-1.66,0-3.02,1.36-3.02,3.02v2.74c0,.78.31,1.49.8,2.03-.24.26-.44.56-.57.89-.39-.03-.78-.06-1.18-.06-7.53,0-13.65,6.12-13.65,13.65s6.12,13.64,13.65,13.64c.93,0,1.83-.09,2.71-.27.4.18.82.28,1.26.28h16.57c.78,0,1.48-.31,2.02-.8.54.49,1.24.79,2.02.79h16.57c1.66,0,3.02-1.35,3.02-3.02v-2.74c0-.78-.31-1.48-.79-2.02.48-.54.79-1.24.79-2.02v-2.74c0-.78-.31-1.48-.79-2.02.48-.54.79-1.24.79-2.02v-2.74ZM16.74,58.68c-6.42,0-11.65-5.22-11.65-11.64s5.23-11.65,11.65-11.65,11.64,5.23,11.64,11.65-5.22,11.64-11.64,11.64ZM38.3,57.66c0,.57-.46,1.03-1.02,1.03h-13.47c1.94-1.18,3.56-2.83,4.7-4.79h8.77c.56,0,1.02.46,1.02,1.02v2.74ZM38.3,50.88c0,.57-.45,1.02-1.02,1.02h-7.81c.57-1.49.9-3.1.91-4.78h6.9c.56,0,1.02.46,1.02,1.02v2.74ZM38.3,44.1c0,.57-.45,1.02-1.02,1.02h-7.05c-.24-1.72-.8-3.33-1.62-4.78h8.67c.57,0,1.02.45,1.02,1.02v2.74ZM38.3,37.32c0,.56-.46,1.02-1.02,1.02h-10.04c-1.83-2.2-4.34-3.81-7.19-4.53.17-.15.4-.25.66-.25h16.57c.57,0,1.02.45,1.02,1.02v2.74ZM38.3,30.53c0,.56-.46,1.02-1.02,1.02h-16.57c-.56,0-1.02-.46-1.02-1.02v-2.74c0-.56.46-1.02,1.02-1.02h16.57c.56,0,1.02.46,1.02,1.02v2.74ZM58.91,57.66c0,.57-.46,1.02-1.02,1.02h-16.57c-.56,0-1.02-.45-1.02-1.02v-2.74c0-.56.46-1.02,1.02-1.02h16.57c.56,0,1.02.46,1.02,1.02v2.74ZM58.91,50.88c0,.56-.46,1.02-1.02,1.02h-16.57c-.56,0-1.02-.46-1.02-1.02v-2.74c0-.56.46-1.02,1.02-1.02h16.57c.56,0,1.02.46,1.02,1.02v2.74ZM58.91,44.1c0,.56-.46,1.02-1.02,1.02h-16.57c-.56,0-1.02-.46-1.02-1.02v-2.74c0-.57.46-1.02,1.02-1.02h16.57c.56,0,1.02.45,1.02,1.02v2.74Z"/>
  <path class="st3" d="M38.3,54.92v2.74c0,.57-.46,1.03-1.02,1.03h-13.47c1.94-1.18,3.56-2.83,4.7-4.79h8.77c.56,0,1.02.46,1.02,1.02Z"/>
  <path class="st3" d="M58.91,54.92v2.74c0,.57-.46,1.02-1.02,1.02h-16.57c-.56,0-1.02-.45-1.02-1.02v-2.74c0-.56.46-1.02,1.02-1.02h16.57c.56,0,1.02.46,1.02,1.02Z"/>
  <rect class="st3" x="40.3" y="47.12" width="18.61" height="4.78" rx="1.02" ry="1.02"/>
  <path class="st3" d="M58.91,41.36v2.74c0,.56-.46,1.02-1.02,1.02h-16.57c-.56,0-1.02-.46-1.02-1.02v-2.74c0-.57.46-1.02,1.02-1.02h16.57c.56,0,1.02.45,1.02,1.02Z"/>
  <rect class="st3" x="19.69" y="26.77" width="18.61" height="4.78" rx="1.02" ry="1.02"/>
  <path class="st3" d="M38.3,34.58v2.74c0,.56-.46,1.02-1.02,1.02h-10.04c-1.83-2.2-4.34-3.81-7.19-4.53.17-.15.4-.25.66-.25h16.57c.57,0,1.02.45,1.02,1.02Z"/>
  <path class="st3" d="M38.3,41.36v2.74c0,.57-.45,1.02-1.02,1.02h-7.05c-.24-1.72-.8-3.33-1.62-4.78h8.67c.57,0,1.02.45,1.02,1.02Z"/>
  <path class="st3" d="M38.3,48.14v2.74c0,.57-.45,1.02-1.02,1.02h-7.81c.57-1.49.9-3.1.91-4.78h6.9c.56,0,1.02.46,1.02,1.02Z"/>
  <path class="st2" d="M16.74,35.39c-6.42,0-11.65,5.23-11.65,11.65s5.23,11.64,11.65,11.64,11.64-5.22,11.64-11.64-5.22-11.65-11.64-11.65ZM20.65,49.91c-.27,1.26-1.57,1.99-2.98,2.23v1.3c0,.55-.45,1-1,1s-1-.45-1-1v-1.31c-1.67-.31-2.79-1.37-2.91-2.82-.04-.55.37-1.03.92-1.07s1.03.36,1.08.91c.07.9,1.31,1.05,1.69,1.07,1.18.08,2.17-.39,2.24-.73.14-.67.24-1.11-3.31-2.06-2.18-.59-2.79-2.09-2.63-3.3.2-1.46,1.44-2.67,2.92-2.97v-.52c0-.56.44-1,1-1s1,.44,1,1v.61c1.56.35,2.4,1.29,2.67,1.9.22.5-.01,1.09-.52,1.31-.49.22-1.07,0-1.3-.49-.04-.06-.52-.88-2.17-.88-.85,0-1.53.69-1.61,1.3-.09.63.58.95,1.15,1.11,3.16.84,5.34,1.66,4.76,4.41Z"/>
  <path class="st1" d="M20.65,49.91c-.27,1.26-1.57,1.99-2.98,2.23v1.3c0,.55-.45,1-1,1s-1-.45-1-1v-1.31c-1.67-.31-2.79-1.37-2.91-2.82-.04-.55.37-1.03.92-1.07s1.03.36,1.08.91c.07.9,1.31,1.05,1.69,1.07,1.18.08,2.17-.39,2.24-.73.14-.67.24-1.11-3.31-2.06-2.18-.59-2.79-2.09-2.63-3.3.2-1.46,1.44-2.67,2.92-2.97v-.52c0-.56.44-1,1-1s1,.44,1,1v.61c1.56.35,2.4,1.29,2.67,1.9.22.5-.01,1.09-.52,1.31-.49.22-1.07,0-1.3-.49-.04-.06-.52-.88-2.17-.88-.85,0-1.53.69-1.61,1.3-.09.63.58.95,1.15,1.11,3.16.84,5.34,1.66,4.76,4.41Z"/>
  <path class="st1" d="M52.62,18.91c-3.98,0-4.42-6.06-4.43-6.12-.03-.53-.47-.94-1-.94-.52.01-.96.41-.99.94-.01.06-.44,6.12-4.43,6.12-.55,0-1,.45-1,1s.45,1,1,1c3.97,0,4.42,6.07,4.43,6.13.03.52.47.93.99.93s.97-.41,1-.93c.01-.06.45-6.13,4.43-6.13.55,0,1-.44,1-1s-.45-1-1-1ZM47.19,22.88c-.51-1.15-1.25-2.22-2.27-2.97,1.02-.74,1.76-1.82,2.27-2.96.52,1.14,1.25,2.22,2.27,2.96-1.02.75-1.75,1.82-2.27,2.97Z"/>
  <path class="st0" d="M49.46,19.91c-1.02.75-1.75,1.82-2.27,2.97-.51-1.15-1.25-2.22-2.27-2.97,1.02-.74,1.76-1.82,2.27-2.96.52,1.14,1.25,2.22,2.27,2.96Z"/>
  <path class="st1" d="M27.69,10.37c-3.97,0-4.42-6.06-4.43-6.12-.03-.53-.47-.94-.99-.94h-.01c-.52,0-.96.41-.99.94-.01.06-.44,6.12-4.43,6.12-.55,0-1,.45-1,1s.45,1,1,1c3.97,0,4.42,6.07,4.43,6.13.03.52.47.93,1,.93s.96-.41.99-.93c.01-.07.44-6.13,4.43-6.13.55,0,1-.45,1-1s-.45-1-1-1ZM22.27,14.34c-.52-1.15-1.26-2.23-2.27-2.97,1.01-.74,1.75-1.82,2.27-2.96.51,1.14,1.25,2.22,2.27,2.96-1.02.74-1.76,1.82-2.27,2.97Z"/>
  <path class="st0" d="M24.54,11.37c-1.02.74-1.76,1.82-2.27,2.97-.52-1.15-1.26-2.23-2.27-2.97,1.01-.74,1.75-1.82,2.27-2.96.51,1.14,1.25,2.22,2.27,2.96Z"/>
</svg>