<?xml version="1.0" encoding="UTF-8"?>
<svg id="Layer_1" xmlns="http://www.w3.org/2000/svg" version="1.1" viewBox="0 0 64 64">
  <!-- Generator: Adobe Illustrator 29.3.1, SVG Export Plug-In . SVG Version: 2.1.0 Build 151)  -->
  <defs>
    <style>
      .st0 {
        fill: #9e9d9d;
      }

      .st1 {
        fill: #fab271;
      }

      .st2 {
        fill: #31323a;
      }

      .st3 {
        fill: #e2e5ea;
      }

      .st4 {
        fill: #fcd67b;
      }
    </style>
  </defs>
  <path class="st0" d="M14.89,48.22v2h-4.47c-.55,0-1-.45-1-1v-4.2h-3.35v6.8c0,.67.55,1.22,1.22,1.22h7.6v2h11.9l.88-6.82h-12.78Z"/>
  <path class="st0" d="M59.39,21.09v-11.74c0-.67-.55-1.22-1.22-1.22H7.29c-.67,0-1.22.55-1.22,1.22v6.81h3.35v-4.2c0-.55.45-1,1-1h44.62c.55,0,1,.45,1,1v9.13h-2v26.64h7.35v-26.64h-2Z"/>
  <path class="st2" d="M58.17,6.13H7.29c-1.78,0-3.22,1.44-3.22,3.22v6.86c-.83.2-1.46.94-1.46,1.83v5.67c0,.74.42,1.36,1.03,1.68-.32.16-.55.49-.55.88v9.95c-.29.33-.48.77-.48,1.24v5.67c0,.89.63,1.64,1.46,1.83v6.86c0,1.78,1.44,3.22,3.22,3.22h10.6c.56,0,1-.45,1-1s-.44-1-1-1H7.29c-.67,0-1.22-.55-1.22-1.22v-6.8h3.35v4.2c0,.55.45,1,1,1h4.47c.56,0,1-.45,1-1s-.44-1-1-1h-3.47v-3.27c.81-.21,1.41-.94,1.41-1.82v-5.67c0-.87-.6-1.6-1.41-1.81v-10.12c.81-.21,1.41-.94,1.41-1.82v-5.67c0-.87-.6-1.6-1.41-1.81v-3.27h42.62v8.72c0,.56.45,1,1,1s1-.44,1-1v-9.72c0-.55-.45-1-1-1H10.42c-.55,0-1,.45-1,1v4.2h-3.35v-6.81c0-.67.55-1.22,1.22-1.22h50.88c.67,0,1.22.55,1.22,1.22v31.2c0,.55.45,1,1,1s1-.45,1-1V9.35c0-1.78-1.44-3.22-3.22-3.22ZM10.83,43.02h-6.22v-3.94c.28-.17.48-.47.48-.83v-.67h5.74v5.44ZM4.82,25.6h4.6v9.98h-4.33v-9.31c0-.26-.11-.49-.27-.67ZM10.83,18.16v5.44h-6.22v-5.44h6.22Z"/>
  <path class="st0" d="M9.42,25.6v9.98h-4.33v-9.31c0-.26-.11-.49-.27-.67h4.6Z"/>
  <rect class="st3" x="4.61" y="18.16" width="6.22" height="5.44"/>
  <path class="st3" d="M10.83,37.58v5.44h-6.22v-3.94c.28-.17.48-.47.48-.83v-.67h5.74Z"/>
  <path class="st2" d="M61.35,56.59l-2.6-8.86-.37-1.28c-.12-.43-.51-.72-.96-.72h-4.96l-2.76-9.43c-.12-.43-.51-.72-.96-.72h-11.43c-.44,0-.83.29-.96.72l-2.75,9.43h-4.97c-.44,0-.83.29-.96.72l-.52,1.77-1.99,6.82-.45,1.55c-.09.3-.03.63.15.88.19.25.49.4.81.4h34.72c.31,0,.61-.15.8-.4s.25-.58.16-.88ZM38.06,37.58h9.93l2.38,8.15h-14.69l2.38-8.15ZM27,55.87l2.38-8.14h9.93l2.38,8.14h-14.69ZM41.39,47.73h3.27l-1.63,5.58-1.64-5.58ZM44.36,55.87l2.38-8.14h9.93l2.39,8.14h-14.7Z"/>
  <polygon class="st4" points="50.37 45.73 35.68 45.73 38.06 37.58 47.99 37.58 50.37 45.73"/>
  <polygon class="st4" points="59.06 55.87 44.36 55.87 46.74 47.73 56.67 47.73 59.06 55.87"/>
  <polygon class="st4" points="41.69 55.87 27 55.87 29.38 47.73 39.31 47.73 41.69 55.87"/>
  <path class="st2" d="M24.78,21.92v-1.39c0-.56-.45-1-1-1s-1,.44-1,1v1.39c-3.56.49-6.32,3.55-6.32,7.25,0,4.04,3.28,7.32,7.32,7.32s7.33-3.28,7.33-7.32c0-3.7-2.76-6.76-6.33-7.25ZM23.78,34.49c-2.93,0-5.32-2.39-5.32-5.32s2.39-5.33,5.32-5.33,5.33,2.39,5.33,5.33-2.39,5.32-5.33,5.32Z"/>
  <path class="st0" d="M23.78,23.84c-2.93,0-5.32,2.39-5.32,5.33s2.39,5.32,5.32,5.32,5.33-2.39,5.33-5.32-2.39-5.33-5.33-5.33ZM23.78,32.47c-1.82,0-3.3-1.48-3.3-3.3s1.48-3.31,3.3-3.31,3.31,1.48,3.31,3.31-1.49,3.3-3.31,3.3Z"/>
  <path class="st2" d="M23.78,25.86c-1.82,0-3.3,1.48-3.3,3.31s1.48,3.3,3.3,3.3,3.31-1.48,3.31-3.3-1.49-3.31-3.31-3.31ZM23.78,30.47c-.72,0-1.3-.58-1.3-1.3s.58-1.31,1.3-1.31,1.31.59,1.31,1.31-.59,1.3-1.31,1.3Z"/>
  <path class="st3" d="M25.09,29.17c0,.72-.59,1.3-1.31,1.3s-1.3-.58-1.3-1.3.58-1.31,1.3-1.31,1.31.59,1.31,1.31Z"/>
  <path class="st2" d="M57.51,30.47c-3.06,0-3.41-4.76-3.42-4.81-.01-.09-.02-.17-.05-.25-.13-.4-.51-.68-.94-.68-.53,0-.97.41-1,.93,0,.05-.36,4.81-3.42,4.81-.55,0-1,.45-1,1s.45,1,1,1c3.06,0,3.41,4.76,3.42,4.81.03.53.47.93,1,.93.43,0,.81-.28.94-.68.03-.08.04-.16.05-.25,0-.05.36-4.81,3.42-4.81.55,0,1-.44,1-1s-.45-1-1-1ZM54.04,32.05c-.38.42-.69.9-.94,1.41-.39-.76-.89-1.46-1.54-1.99.65-.53,1.15-1.23,1.54-1.98.25.5.56.98.94,1.4.18.21.38.4.6.58-.22.18-.42.37-.6.58Z"/>
  <path class="st1" d="M54.64,31.47c-.66.53-1.16,1.23-1.54,1.99-.39-.76-.89-1.46-1.54-1.99.65-.53,1.15-1.23,1.54-1.98.38.75.88,1.45,1.54,1.98Z"/>
  <path class="st2" d="M25.45,45.62c-3.06,0-3.41-4.76-3.41-4.81-.04-.52-.48-.93-1-.93s-.97.41-1,.93c0,.05-.36,4.81-3.42,4.81-.55,0-1,.45-1,1s.45,1,1,1c.68,0,1.23.24,1.66.6,1.54,1.28,1.76,4.17,1.76,4.21.03.52.47.93,1,.93s.96-.41,1-.93c0-.04.21-2.93,1.75-4.21.43-.36.98-.6,1.66-.6.55,0,1-.45,1-1s-.45-1-1-1ZM21.04,48.6c-.07-.13-.14-.26-.21-.38-.35-.61-.79-1.16-1.33-1.6.65-.53,1.16-1.23,1.54-1.98.38.75.88,1.45,1.54,1.98-.55.44-.98.99-1.33,1.6-.08.12-.14.25-.21.38Z"/>
  <path class="st1" d="M22.58,46.62c-.66.53-1.16,1.23-1.54,1.98-.38-.75-.89-1.45-1.54-1.98.65-.53,1.16-1.23,1.54-1.98.38.75.88,1.45,1.54,1.98Z"/>
  <path class="st3" d="M11.42,12.96v3.27c.81.21,1.41.94,1.41,1.81v5.67c0,.88-.6,1.61-1.41,1.82v10.12c.81.21,1.41.94,1.41,1.81v5.67c0,.88-.6,1.61-1.41,1.82v3.27h6.86c-.43-.36-.98-.6-1.66-.6-.55,0-1-.45-1-1s.45-1,1-1c3.06,0,3.42-4.76,3.42-4.81.03-.52.47-.93,1-.93s.96.41,1,.93c0,.05.35,4.81,3.41,4.81.55,0,1,.45,1,1s-.45,1-1,1c-.68,0-1.23.24-1.66.6h3.36l.52-1.77c.13-.43.52-.72.96-.72h4.97l2.75-9.43c.13-.43.52-.72.96-.72h11.43c.45,0,.84.29.96.72l2.76,9.43h1.58v-8.2c-.13.4-.51.68-.94.68-.53,0-.97-.4-1-.93,0-.05-.36-4.81-3.42-4.81-.55,0-1-.44-1-1s.45-1,1-1c3.06,0,3.41-4.76,3.42-4.81.03-.52.47-.93,1-.93.43,0,.81.28.94.68v-12.45H11.42ZM23.78,36.49c-4.04,0-7.32-3.28-7.32-7.32,0-3.7,2.76-6.76,6.32-7.25v-1.39c0-.56.45-1,1-1s1,.44,1,1v1.39c3.57.49,6.33,3.55,6.33,7.25,0,4.04-3.29,7.32-7.33,7.32Z"/>
</svg>