<?xml version="1.0" encoding="UTF-8"?>
<svg id="Layer_1" xmlns="http://www.w3.org/2000/svg" version="1.1" viewBox="0 0 64 64">
  <!-- Generator: Adobe Illustrator 29.3.1, SVG Export Plug-In . SVG Version: 2.1.0 Build 151)  -->
  <defs>
    <style>
      .st0 {
        fill: #9e9d9d;
      }

      .st1 {
        fill: #fab271;
      }

      .st2 {
        fill: #31323a;
      }

      .st3 {
        fill: #e2e5ea;
      }

      .st4 {
        fill: #fcd67b;
      }
    </style>
  </defs>
  <path class="st2" d="M57.3,3.19H6.7c-2,0-3.63,1.63-3.63,3.64v45.3c0,2,1.63,3.63,3.63,3.63h1.57v2.27c0,1.53,1.24,2.78,2.77,2.78h4.63c1.54,0,2.78-1.25,2.78-2.78v-2.27h27.1v2.27c0,1.53,1.24,2.78,2.78,2.78h4.63c1.53,0,2.77-1.25,2.77-2.78v-2.27h1.57c2,0,3.63-1.63,3.63-3.63V6.83c0-2.01-1.63-3.64-3.63-3.64ZM16.45,58.03c0,.43-.35.78-.78.78h-4.63c-.42,0-.77-.35-.77-.78v-2.27h6.18v2.27ZM53.73,58.03c0,.43-.35.78-.77.78h-4.63c-.43,0-.78-.35-.78-.78v-2.27h6.18v2.27ZM58.93,52.13c0,.9-.73,1.63-1.63,1.63H6.7c-.9,0-1.63-.73-1.63-1.63V6.83c0-.9.73-1.64,1.63-1.64h50.6c.9,0,1.63.74,1.63,1.64v45.3Z"/>
  <path class="st0" d="M16.45,55.76v2.27c0,.43-.35.78-.78.78h-4.63c-.42,0-.77-.35-.77-.78v-2.27h6.18Z"/>
  <path class="st0" d="M53.73,55.76v2.27c0,.43-.35.78-.77.78h-4.63c-.43,0-.78-.35-.78-.78v-2.27h6.18Z"/>
  <path class="st3" d="M57.3,5.19H6.7c-.9,0-1.63.74-1.63,1.64v45.3c0,.9.73,1.63,1.63,1.63h50.6c.9,0,1.63-.73,1.63-1.63V6.83c0-.9-.73-1.64-1.63-1.64ZM55.73,50.06c0,.55-.45,1-1,1H9.27c-.55,0-1-.45-1-1V8.9c0-.55.45-1,1-1h45.46c.55,0,1,.45,1,1v41.16Z"/>
  <path class="st2" d="M54.73,7.9H9.27c-.55,0-1,.45-1,1v41.16c0,.55.45,1,1,1h45.46c.55,0,1-.45,1-1V8.9c0-.55-.45-1-1-1ZM14.21,49.06l1.65-6.15h6.88l1.65,6.15h-10.18ZM26.99,32.77l1.65-6.15h6.88l1.65,6.15h-10.18ZM41.91,34.77l1.65,6.14h-10.17l1.64-6.14h6.88ZM32.96,34.77l-.88,3.28-.88-3.28h1.76ZM29.13,34.77l1.65,6.14h-10.18l1.65-6.14h6.88ZM25.69,46.2l-.88-3.29h1.76l-.88,3.29ZM26.99,49.06l1.65-6.15h6.88l1.65,6.15h-10.18ZM38.47,46.2l-.88-3.29h1.76l-.88,3.29ZM39.78,49.06l1.65-6.15h6.88l1.64,6.15h-10.17ZM53.73,49.06h-1.71l-1.98-7.4c-.12-.44-.51-.75-.97-.75h-3.44l-1.98-7.4c-.12-.44-.52-.74-.97-.74h-3.44l-1.98-7.4c-.12-.44-.52-.75-.97-.75h-8.42c-.45,0-.84.31-.96.75l-1.99,7.4h-3.44c-.45,0-.85.3-.96.74l-1.99,7.4h-3.44c-.45,0-.85.31-.97.75l-1.98,7.4h-1.87V9.9h43.46v39.16Z"/>
  <polygon class="st0" points="26.57 42.91 25.69 46.2 24.81 42.91 26.57 42.91"/>
  <polygon class="st0" points="39.35 42.91 38.47 46.2 37.59 42.91 39.35 42.91"/>
  <polygon class="st0" points="32.96 34.77 32.08 38.05 31.2 34.77 32.96 34.77"/>
  <polygon class="st4" points="37.17 32.77 26.99 32.77 28.64 26.62 35.52 26.62 37.17 32.77"/>
  <polygon class="st4" points="43.56 40.91 33.39 40.91 35.03 34.77 41.91 34.77 43.56 40.91"/>
  <polygon class="st4" points="49.95 49.06 39.78 49.06 41.43 42.91 48.31 42.91 49.95 49.06"/>
  <polygon class="st4" points="37.17 49.06 26.99 49.06 28.64 42.91 35.52 42.91 37.17 49.06"/>
  <polygon class="st4" points="30.78 40.91 20.6 40.91 22.25 34.77 29.13 34.77 30.78 40.91"/>
  <polygon class="st4" points="24.39 49.06 14.21 49.06 15.86 42.91 22.74 42.91 24.39 49.06"/>
  <path class="st0" d="M10.27,9.9v39.16h1.87l1.98-7.4c.12-.44.52-.75.97-.75h3.44l1.99-7.4c.11-.44.51-.74.96-.74h3.44l1.99-7.4c.12-.44.51-.75.96-.75h8.42c.45,0,.85.31.97.75l1.98,7.4h3.44c.45,0,.85.3.97.74l1.98,7.4h3.44c.46,0,.85.31.97.75l1.98,7.4h1.71V9.9H10.27ZM24.94,21.62c-4.17,0-4.63,5.27-4.64,5.5-.04.52-.48.92-1,.92s-.96-.4-1-.92c-.02-.23-.47-5.5-4.64-5.5-.55,0-1-.45-1-1s.45-1,1-1c4.19,0,4.62-5.28,4.64-5.5.04-.53.47-.93,1-.93s.96.4,1,.93c.01.22.47,5.5,4.64,5.5.55,0,1,.44,1,1s-.45,1-1,1ZM51.26,21.62c-4.17,0-4.63,5.27-4.64,5.5-.04.52-.48.92-1,.92s-.96-.4-1-.92c-.02-.23-.47-5.5-4.64-5.5-.55,0-1-.45-1-1s.45-1,1-1c4.17,0,4.62-5.28,4.64-5.5.04-.53.48-.93,1-.93s.96.4,1,.93c.01.22.47,5.5,4.64,5.5.55,0,1,.44,1,1s-.45,1-1,1Z"/>
  <path class="st2" d="M24.94,19.62c-4.17,0-4.63-5.28-4.64-5.5-.04-.53-.48-.93-1-.93s-.96.4-1,.93c-.02.22-.45,5.5-4.64,5.5-.55,0-1,.44-1,1s.45,1,1,1c4.17,0,4.62,5.27,4.64,5.5.04.52.47.92,1,.92s.96-.4,1-.92c.01-.23.47-5.5,4.64-5.5.55,0,1-.45,1-1s-.45-1-1-1ZM19.3,23.34c-.51-1.04-1.25-2.03-2.26-2.72,1.01-.7,1.75-1.69,2.26-2.73.51,1.04,1.25,2.03,2.26,2.73-1.01.69-1.75,1.68-2.26,2.72Z"/>
  <path class="st1" d="M21.56,20.62c-1.01.69-1.75,1.68-2.26,2.72-.51-1.04-1.25-2.03-2.26-2.72,1.01-.7,1.75-1.69,2.26-2.73.51,1.04,1.25,2.03,2.26,2.73Z"/>
  <path class="st2" d="M51.26,19.62c-4.17,0-4.63-5.28-4.64-5.5-.04-.53-.47-.93-1-.93s-.96.4-1,.93c-.02.22-.47,5.5-4.64,5.5-.55,0-1,.44-1,1s.45,1,1,1c4.17,0,4.62,5.27,4.64,5.5.04.52.47.92,1,.92s.96-.4,1-.92c.01-.23.47-5.5,4.64-5.5.55,0,1-.45,1-1s-.45-1-1-1ZM45.62,23.34c-.51-1.04-1.25-2.03-2.26-2.72,1.01-.7,1.75-1.69,2.26-2.73.51,1.04,1.25,2.03,2.26,2.73-1.01.69-1.75,1.68-2.26,2.72Z"/>
  <path class="st1" d="M47.88,20.62c-1.01.69-1.75,1.68-2.26,2.72-.51-1.04-1.25-2.03-2.26-2.72,1.01-.7,1.75-1.69,2.26-2.73.51,1.04,1.25,2.03,2.26,2.73Z"/>
</svg>