<?xml version="1.0" encoding="UTF-8"?>
<svg id="Layer_1" xmlns="http://www.w3.org/2000/svg" version="1.1" viewBox="0 0 64 64">
  <!-- Generator: Adobe Illustrator 29.3.1, SVG Export Plug-In . SVG Version: 2.1.0 Build 151)  -->
  <defs>
    <style>
      .st0 {
        fill: #fab271;
      }

      .st1 {
        fill: #31323a;
      }

      .st2 {
        fill: #ffcdb2;
      }

      .st3 {
        fill: #fcd67b;
      }
    </style>
  </defs>
  <path class="st2" d="M53.76,43.98c-.26-.27-.7-.15-1.31.38l-6.51,4.89c-2.36,1.76-5.28,2.74-8.23,2.74h-7.57c-.55,0-1-.45-1-1s.45-1,1-1h6.54c.02-.27-.05-.8-.39-1.35-.36-.58-1.06-1.27-2.37-1.28h-5.46c-2.36-.13-3.4.63-4.71,1.61-1.39,1.02-2.93,2.18-6.07,2.16l-7.7-.06.02-.57-2.95-.46v10.62l2.62-.57v-.43c5.26.01,21.64.02,25.93-.17,4.74-.22,8.32-3.75,8.35-3.78l10.08-9.59c.27-.3.26-1.6-.27-2.14Z"/>
  <path class="st2" d="M55.04,3.34l-.11,1c-2.51-.01-22.48-.05-27.28.17-4.75.22-8.32,3.75-8.36,3.78l-10.07,9.59c-.27.3-.26,1.6.26,2.14.27.27.71.15,1.32-.38l6.51-4.89c2.36-1.76,5.28-2.74,8.22-2.74h7.58c.55,0,1,.45,1,1s-.45,1-1,1h-6.54c-.02.27.04.8.38,1.35.36.58,1.06,1.27,2.38,1.28h5.45c2.37.14,3.4-.63,4.71-1.61,1.39-1.02,2.96-2.2,6.07-2.16l8.44.07-.11,1.02h2.31V3.34h-1.16Z"/>
  <path class="st1" d="M55.45,47.52l-10.1,9.62c-.15.15-4.15,4.09-9.66,4.34-3.38.16-13.79.19-20.84.19-3.71,0-6.49-.01-6.8-.01-.56,0-1-.45-1-1s.45-1,1-1h1.63c5.25.01,21.63.02,25.92-.17,4.74-.22,8.32-3.75,8.35-3.78l10.08-9.59c.27-.3.26-1.6-.27-2.14-.26-.27-.7-.15-1.31.38l-6.51,4.89c-2.36,1.76-5.28,2.74-8.23,2.74h-7.57c-.55,0-1-.45-1-1s.45-1,1-1h6.54c.02-.27-.05-.8-.39-1.35-.36-.58-1.06-1.27-2.37-1.28h-5.46c-2.36-.13-3.4.63-4.71,1.61-1.39,1.02-2.93,2.18-6.07,2.16l-7.7-.06-1.94-.02c-.54,0-.99-.44-.99-.99v-.02c0-.55.46-.97,1.01-.99l9.64.08c2.44,0,3.56-.81,4.86-1.77,1.37-1.02,2.93-2.17,5.96-2h5.4c3.26.02,4.77,2.72,4.76,4.53v.06c2.18-.19,4.3-.99,6.06-2.3l6.45-4.85c2.13-1.84,3.61-.63,4.01-.21,1.22,1.26,1.34,3.75.25,4.93Z"/>
  <path class="st1" d="M56.2,13.96c-.01.55-.46.99-1,.99h-.01l-9.65-.08c-2.43-.01-3.56.81-4.85,1.77-1.28.95-2.72,2.02-5.37,2.02-.19,0-.39-.01-.59-.02h-5.41c-3.26-.02-4.76-2.72-4.76-4.53,0-.02,0-.04.01-.06-2.19.19-4.31.99-6.06,2.3l-6.46,4.85c-.86.74-1.62.99-2.24.99-.91,0-1.53-.53-1.76-.78-1.22-1.26-1.35-3.75-.26-4.93l10.1-9.62c.15-.15,4.15-4.09,9.67-4.34,5.15-.24,26.72-.18,27.64-.18.55,0,1,.45,1,1-.01.56-.45,1-1,1h-.27c-2.51-.01-22.48-.05-27.28.17-4.75.22-8.32,3.75-8.36,3.78l-10.07,9.59c-.27.3-.26,1.6.26,2.14.27.27.71.15,1.32-.38l6.51-4.89c2.36-1.76,5.28-2.74,8.22-2.74h7.58c.55,0,1,.45,1,1s-.45,1-1,1h-6.54c-.02.27.04.8.38,1.35.36.58,1.06,1.27,2.38,1.28h5.45c2.37.14,3.4-.63,4.71-1.61,1.39-1.02,2.96-2.2,6.07-2.16l8.44.07h1.2c.56.01,1,.46,1,1.02Z"/>
  <path class="st1" d="M48.54,40.99l-2.71-9.27c-.13-.43-.52-.72-.96-.72h-4.48l-2.5-8.55c-.12-.43-.51-.72-.96-.72h-10.44c-.45,0-.84.29-.96.72l-2.5,8.55h-4.48c-.44,0-.83.29-.96.72l-2.71,9.27c-.09.3-.03.63.16.88s.48.4.8.4h31.74c.32,0,.61-.15.8-.4s.25-.58.16-.88ZM27.24,23.73h8.94l2.13,7.27h-13.2l2.13-7.27ZM17.17,40.27l2.13-7.27h8.95l2.13,7.27h-13.21ZM30.33,33h2.76l-1.38,4.71-1.38-4.71ZM33.04,40.27l2.13-7.27h8.95l2.13,7.27h-13.21Z"/>
  <polygon class="st3" points="38.31 31 25.11 31 27.24 23.73 36.18 23.73 38.31 31"/>
  <polygon class="st3" points="30.38 40.27 17.17 40.27 19.3 33 28.25 33 30.38 40.27"/>
  <polygon class="st3" points="46.25 40.27 33.04 40.27 35.17 33 44.12 33 46.25 40.27"/>
  <path class="st1" d="M55.95,25.4c-3.33,0-3.71-5.14-3.71-5.19-.04-.53-.47-.94-1-.94s-.97.41-1,.94c0,.05-.37,5.19-3.71,5.19-.55,0-1,.45-1,1s.45,1,1,1c3.33,0,3.71,5.15,3.71,5.2.04.53.47.94,1,.94s.96-.41,1-.94c0-.05.38-5.2,3.71-5.2.55,0,1-.44,1-1s-.45-1-1-1ZM51.24,28.67c-.42-.86-1-1.67-1.75-2.27.75-.59,1.33-1.4,1.75-2.26.42.86.99,1.67,1.75,2.26-.76.6-1.33,1.41-1.75,2.27Z"/>
  <path class="st0" d="M52.99,26.4c-.76.6-1.33,1.41-1.75,2.27-.42-.86-1-1.67-1.75-2.27.75-.59,1.33-1.4,1.75-2.26.42.86.99,1.67,1.75,2.26Z"/>
  <path class="st1" d="M18.36,27.52c-2.84,0-3.16-3.53-3.17-3.68-.04-.52-.47-.92-1-.92s-.95.4-1,.92c-.01.15-.33,3.68-3.17,3.68-.55,0-1,.44-1,1s.45,1,1,1c2.84,0,3.16,3.52,3.17,3.67.04.52.47.92,1,.92s.95-.4,1-.92c.01-.15.33-3.67,3.17-3.67.55,0,1-.45,1-1s-.45-1-1-1ZM14.19,29.91c-.31-.51-.71-1-1.2-1.39.49-.4.89-.88,1.2-1.4.31.52.71,1,1.2,1.4-.49.39-.89.88-1.2,1.39Z"/>
  <path class="st0" d="M15.39,28.52c-.49.39-.89.88-1.2,1.39-.31-.51-.71-1-1.2-1.39.49-.4.89-.88,1.2-1.4.31.52.71,1,1.2,1.4Z"/>
</svg>