<?xml version="1.0" encoding="UTF-8"?>
<svg id="Layer_1" xmlns="http://www.w3.org/2000/svg" version="1.1" viewBox="0 0 64 64">
  <!-- Generator: Adobe Illustrator 29.3.1, SVG Export Plug-In . SVG Version: 2.1.0 Build 151)  -->
  <defs>
    <style>
      .st0 {
        fill: #31323a;
      }

      .st1 {
        fill: #c9e6f0;
      }

      .st2 {
        fill: #fcd67b;
      }

      .st3 {
        fill: #dea254;
      }

      .st4 {
        fill: #78b3ce;
      }
    </style>
  </defs>
  <path class="st0" d="M13.02,20.05c-2.2,0-3.98,1.78-3.98,3.98s1.78,3.98,3.98,3.98,3.98-1.79,3.98-3.98-1.79-3.98-3.98-3.98ZM13.02,26.01c-1.1,0-1.98-.89-1.98-1.98s.88-1.98,1.98-1.98,1.98.89,1.98,1.98-.89,1.98-1.98,1.98Z"/>
  <path class="st4" d="M15,24.03c0,1.09-.89,1.98-1.98,1.98s-1.98-.89-1.98-1.98.88-1.98,1.98-1.98,1.98.89,1.98,1.98Z"/>
  <path class="st0" d="M13.88,10.21c-1.88,0-3.42,1.53-3.42,3.42s1.54,3.42,3.42,3.42,3.42-1.54,3.42-3.42-1.53-3.42-3.42-3.42ZM13.88,15.05c-.78,0-1.42-.64-1.42-1.42s.64-1.42,1.42-1.42,1.42.63,1.42,1.42-.64,1.42-1.42,1.42Z"/>
  <path class="st4" d="M15.3,13.63c0,.78-.64,1.42-1.42,1.42s-1.42-.64-1.42-1.42.64-1.42,1.42-1.42,1.42.63,1.42,1.42Z"/>
  <path class="st0" d="M54.58,9.33c-1.89,0-3.42,1.53-3.42,3.42s1.53,3.41,3.42,3.41,3.42-1.53,3.42-3.41-1.54-3.42-3.42-3.42ZM54.58,14.16c-.79,0-1.42-.63-1.42-1.41s.63-1.42,1.42-1.42,1.42.63,1.42,1.42-.64,1.41-1.42,1.41Z"/>
  <path class="st4" d="M56,12.75c0,.78-.64,1.41-1.42,1.41s-1.42-.63-1.42-1.41.63-1.42,1.42-1.42,1.42.63,1.42,1.42Z"/>
  <path class="st0" d="M62.41,33.11l-7.75-12.76s-.03-.03-.05-.06c-.03-.04-.07-.08-.11-.12-.05-.05-.11-.1-.17-.13-.04-.03-.09-.05-.13-.07-.07-.03-.14-.06-.22-.07-.03,0-.05-.02-.08-.02l-3.26-.32c.2-3.07-2.8-5.35-4.01-6.14-.11-1.11-.57-2.05-1.36-2.75-1.66-1.47-4.37-1.53-5.62-1.46-.93-1.39-2.1-2.22-3.49-2.47-2.17-.39-4.2.81-5.04,1.4-2.24-.39-4.1-.07-5.51.96-1.34.98-1.93,2.35-2.17,3.22-1.13.19-2.09.71-2.76,1.53-.95,1.18-1.32,2.4-1.09,3.64.29,1.59,1.53,2.71,2.23,3.24.21,2.92,3.08,4.21,5,4.58.01,0,.01.01.01.02l-17.21,7.95h-.01c-.11.05-.21.13-.29.22-.03.02-.05.06-.07.09-.04.05-.08.09-.11.15l-7.59,15.3c-.14.27-.14.6-.01.87.13.28.38.48.68.55l22.88,5.21c.07.01.14.02.21.02h.02c.1,0,.2-.02.31-.06.03-.01.06-.02.09-.04.03-.01.06-.02.09-.03l7.18-4.17c.74,2.16,3.11,3.18,4.77,3.5.8,1.35,1.86,2.15,3.14,2.38.26.05.51.07.76.07,1.63,0,3.14-.9,3.96-1.5,1.53,1.02,3.11,1.42,4.71,1.19,2.49-.36,4.31-2.16,5.06-3.04,1.71.15,3.13-.19,4.23-1.03,1.64-1.25,1.88-3.16,1.88-3.16.71-3.4-2.63-5.95-3.92-6.8-.11-1.1-.58-2.04-1.37-2.74-.61-.55-1.37-.9-2.14-1.12l7.98-4.64c.23-.14.4-.36.47-.62.06-.26.02-.54-.12-.77ZM23.81,20.24c.01-.37-.18-.72-.5-.91-.42-.25-1.56-1.14-1.75-2.21-.12-.64.1-1.3.67-2.01.44-.54,1.17-.84,2.04-.86.51,0,.92-.39.98-.89,0-.01.21-1.69,1.55-2.66,1.03-.74,2.5-.91,4.36-.52.3.07.62-.01.85-.21.02-.02,1.95-1.6,3.81-1.26.94.17,1.76.86,2.43,2.03.2.36.6.56,1,.51.89-.12,3.46-.17,4.69.92.49.44.73,1.03.72,1.81,0,.37.19.71.51.89.04.02,3.48,2.01,3.46,4.49l-7.06-.69c-.18-.01-.36.02-.52.09l-12.38,5.72c-.11-.17-.22-.35-.32-.54-.15-.3-.45-.5-.78-.54-.16-.02-3.88-.49-3.76-3.16ZM41.64,20.69l8.68.85-27.6,14.12-9.46-1.86,28.38-13.11ZM3.9,48.79l6.69-13.48,11.38,2.24,2.16,15.85-20.23-4.61ZM54.9,41.75c.49.44.72,1.03.71,1.81,0,.37.2.71.51.89.04.02,3.99,2.27,3.42,5.03,0,.01-.16,1.16-1.12,1.89-.78.59-1.89.79-3.3.57-.38-.06-.75.1-.97.41-.02.02-1.71,2.36-4.11,2.7-1.26.17-2.54-.24-3.81-1.25-.39-.3-.94-.28-1.3.05-.02.02-1.97,1.75-3.66,1.45-.79-.14-1.43-.72-1.97-1.77-.15-.3-.44-.51-.77-.54-.16-.02-3.88-.5-3.77-3.18v-.08s-.01-.08-.02-.12c-.02-.12-.05-.23-.11-.33-.06-.11-.15-.2-.25-.28l-.02-.02s-.06-.05-.09-.07c-.42-.25-1.57-1.14-1.76-2.21-.11-.64.11-1.3.68-2.01.44-.54,1.16-.84,2.04-.86.5,0,.93-.39.98-.89,0-.02.21-1.68,1.53-2.64.68-.49,1.54-.74,2.58-.74.55,0,1.15.07,1.8.21.3.06.62-.02.85-.21.02-.02,1.95-1.61,3.8-1.27.95.17,1.77.86,2.44,2.04.2.35.6.55,1,.5.17-.03.43-.04.72-.05h.05s.06-.01.09-.01c1.16-.02,2.89.14,3.83.98ZM50.71,38.78s-.07.01-.1.01c-.93-1.39-2.1-2.22-3.49-2.47-2.17-.39-4.2.81-5.04,1.4-2.25-.39-4.1-.07-5.51.96-1.34.98-1.93,2.35-2.18,3.22-1.13.18-2.09.71-2.75,1.53-.96,1.18-1.32,2.4-1.1,3.64.21,1.1.86,1.97,1.47,2.58l-5.9,3.43-2.16-15.81,29.49-15.08,6.73,11.09-9.46,5.5Z"/>
  <path class="st1" d="M59.54,49.48s-.16,1.16-1.12,1.89c-.78.59-1.89.79-3.3.57-.38-.06-.75.1-.97.41-.02.02-1.71,2.36-4.11,2.7-1.26.17-2.54-.24-3.81-1.25-.39-.3-.94-.28-1.3.05-.02.02-1.97,1.75-3.66,1.45-.79-.14-1.43-.72-1.97-1.77-.15-.3-.44-.51-.77-.54-.16-.02-3.88-.5-3.77-3.18v-.08s-.01-.08-.02-.12c-.02-.12-.05-.23-.11-.33-.06-.11-.15-.2-.25-.28l-.02-.02s-.06-.05-.09-.07c-.42-.25-1.57-1.14-1.76-2.21-.11-.64.11-1.3.68-2.01.44-.54,1.16-.84,2.04-.86.5,0,.93-.39.98-.89,0-.02.21-1.68,1.53-2.64.68-.49,1.54-.74,2.58-.74.55,0,1.15.07,1.8.21.3.06.62-.02.85-.21.02-.02,1.95-1.61,3.8-1.27.95.17,1.77.86,2.44,2.04.2.35.6.55,1,.5.17-.03.43-.04.72-.05h.05s.06-.01.09-.01c1.16-.02,2.89.14,3.83.98.49.44.72,1.03.71,1.81,0,.37.2.71.51.89.04.02,3.99,2.27,3.42,5.03Z"/>
  <path class="st1" d="M48.63,19.36l-7.06-.69c-.18-.01-.36.02-.52.09l-12.38,5.72c-.11-.17-.22-.35-.32-.54-.15-.3-.45-.5-.78-.54-.16-.02-3.88-.49-3.76-3.16.01-.37-.18-.72-.5-.91-.42-.25-1.56-1.14-1.75-2.21-.12-.64.1-1.3.67-2.01.44-.54,1.17-.84,2.04-.86.51,0,.92-.39.98-.89,0-.01.21-1.69,1.55-2.66,1.03-.74,2.5-.91,4.36-.52.3.07.62-.01.85-.21.02-.02,1.95-1.6,3.81-1.26.94.17,1.76.86,2.43,2.03.2.36.6.56,1,.51.89-.12,3.46-.17,4.69.92.49.44.73,1.03.72,1.81,0,.37.19.71.51.89.04.02,3.48,2.01,3.46,4.49Z"/>
  <polygon class="st2" points="50.32 21.54 22.72 35.66 13.26 33.8 41.64 20.69 50.32 21.54"/>
  <path class="st3" d="M60.17,33.28l-9.46,5.5s-.07.01-.1.01c-.93-1.39-2.1-2.22-3.49-2.47-2.17-.39-4.2.81-5.04,1.4-2.25-.39-4.1-.07-5.51.96-1.34.98-1.93,2.35-2.18,3.22-1.13.18-2.09.71-2.75,1.53-.96,1.18-1.32,2.4-1.1,3.64.21,1.1.86,1.97,1.47,2.58l-5.9,3.43-2.16-15.81,29.49-15.08,6.73,11.09Z"/>
  <polygon class="st3" points="24.13 53.4 3.9 48.79 10.59 35.31 21.97 37.55 24.13 53.4"/>
</svg>