<?xml version="1.0" encoding="UTF-8"?>
<svg id="Layer_1" xmlns="http://www.w3.org/2000/svg" version="1.1" viewBox="0 0 64 64">
  <!-- Generator: Adobe Illustrator 29.3.1, SVG Export Plug-In . SVG Version: 2.1.0 Build 151)  -->
  <defs>
    <style>
      .st0 {
        fill: #9e9d9d;
      }

      .st1 {
        fill: #fab271;
      }

      .st2 {
        fill: #31323a;
      }

      .st3 {
        fill: #e2e5ea;
      }

      .st4 {
        fill: #fcd67b;
      }
    </style>
  </defs>
  <path class="st0" d="M59.28,37.62l-7.83-12.92-1.86-1.98-.73.99c-.28-.65-.55-1.32-.83-2.03-1.83-4.61-2.19-4.79-6.6-6.95l-.41-.2c-1.72-.85-2.92-2.09-4.08-3.3-2.25-2.33-4.19-4.35-9.73-3.02-8.56,2.05-10.39,7.75-11.48,11.15-1.09,3.38-3.66,8.61-6.3,11.65-1.12,1.3-.89,2.36-.36,4.28.31,1.09.66,2.33.6,3.75-.12,3.44-.69,4.32-2.57,7.22l-.51.78c-1.49,2.33-.67,4.8-.22,5.82h5.9c-.32-2.18-.55-6.75,2.24-9.99,1.99-2.29,2.61-4.48,3.15-6.41.35-1.25.66-2.33,1.28-3.2.29-.41.73-1.35,1.23-2.44,1.71-3.67,4.28-9.21,8.35-10.26,5.17-1.32,8.76.2,11.3,4.79.92,1.66,1.6,3.04,2.25,4.38.96,1.96,1.86,3.8,3.4,6.28.84,1.33,1.53,2.14,2.08,2.7h4.08c.45,0,.84.29.96.72l2.35,8.03h3.38c.67-3.01.65-5.24-.11-7.34l1.07-2.5Z"/>
  <path class="st2" d="M62.64,56.93l-2.49-8.5c1.08-4.51.83-7.67-.87-10.81-.26-.49-.86-.67-1.35-.41-.49.27-.67.87-.41,1.36.28.51.51,1.03.69,1.55.76,2.1.78,4.33.11,7.34h-3.38l-2.35-8.03c-.12-.43-.51-.72-.96-.72h-4.08c-.55-.56-1.24-1.37-2.08-2.7-1.54-2.48-2.44-4.32-3.4-6.28-.65-1.34-1.33-2.72-2.25-4.38-2.54-4.59-6.13-6.11-11.3-4.79-4.07,1.05-6.64,6.59-8.35,10.26-.5,1.09-.94,2.03-1.23,2.44-.62.87-.93,1.95-1.28,3.2-.54,1.93-1.16,4.12-3.15,6.41-2.79,3.24-2.56,7.81-2.24,9.99h-5.9c-.45-1.02-1.27-3.49.22-5.82l.51-.78c1.88-2.9,2.45-3.78,2.57-7.22.06-1.42-.29-2.66-.6-3.75-.53-1.92-.76-2.98.36-4.28,2.64-3.04,5.21-8.27,6.3-11.65,1.09-3.4,2.92-9.1,11.48-11.15,5.54-1.33,7.48.69,9.73,3.02,1.16,1.21,2.36,2.45,4.08,3.3l.41.2c4.41,2.16,4.77,2.34,6.6,6.95.28.71.55,1.38.83,2.03.25.62.51,1.21.76,1.79.22.5.8.74,1.31.52.51-.23.74-.81.52-1.32-.5-1.16-1.01-2.39-1.56-3.76-2.06-5.18-2.89-5.71-7.58-8.01l-.41-.2c-1.4-.69-2.43-1.76-3.52-2.88-2.33-2.43-4.99-5.18-11.64-3.59-9.65,2.31-11.78,8.93-12.92,12.49-1.02,3.19-3.44,8.11-5.9,10.95-1.88,2.17-1.29,4.27-.77,6.12.28,1.01.57,2.04.52,3.15-.1,2.89-.43,3.39-2.25,6.21l-.51.78c-1.68,2.61-1.24,5.29-.69,6.9h-1.9c-.55,0-1,.45-1,1s.45,1,1,1h29.05l-.61,2.07c-.09.31-.03.63.16.88.19.26.49.4.8.4h29.96c.31,0,.61-.14.8-.4.19-.25.25-.57.16-.88ZM50.88,40.71l1.98,6.75h-12.31l1.97-6.75h8.36ZM14.29,52.86c-.27-1.7-.66-5.91,1.74-8.68,2.28-2.63,2.99-5.15,3.56-7.18.3-1.07.56-1.99.97-2.58.41-.56.86-1.53,1.43-2.76,1.45-3.12,3.87-8.35,7.03-9.16,4.26-1.09,6.97.05,9.05,3.82.89,1.61,1.56,2.97,2.2,4.29.98,2,1.91,3.89,3.51,6.46.4.65.78,1.19,1.13,1.64h-3.14c-.44,0-.83.29-.96.72l-2.35,8.03h-4.18c-.44,0-.83.3-.96.72l-1.37,4.68H14.29ZM33.06,56.21l1.97-6.75h8.36l1.98,6.75h-12.31ZM46.7,53.65l-1.22-4.19h2.45l-1.23,4.19ZM48.04,56.21l1.97-6.75h8.36l1.98,6.75h-12.31Z"/>
  <polygon class="st3" points="47.93 49.46 46.7 53.65 45.48 49.46 47.93 49.46"/>
  <path class="st3" d="M44.91,38.71h-3.14c-.44,0-.83.29-.96.72l-2.35,8.03h-4.18c-.44,0-.83.3-.96.72l-1.37,4.68H14.29c-.27-1.7-.66-5.91,1.74-8.68,2.28-2.63,2.99-5.15,3.56-7.18.3-1.07.56-1.99.97-2.58.41-.56.86-1.53,1.43-2.76,1.45-3.12,3.87-8.35,7.03-9.16,4.26-1.09,6.97.05,9.05,3.82.89,1.61,1.56,2.97,2.2,4.29.98,2,1.91,3.89,3.51,6.46.4.65.78,1.19,1.13,1.64Z"/>
  <polygon class="st4" points="52.86 47.46 40.55 47.46 42.52 40.71 50.88 40.71 52.86 47.46"/>
  <polygon class="st4" points="45.37 56.21 33.06 56.21 35.03 49.46 43.39 49.46 45.37 56.21"/>
  <polygon class="st4" points="60.35 56.21 48.04 56.21 50.01 49.46 58.37 49.46 60.35 56.21"/>
  <path class="st2" d="M60.72,30.28c-4.67,0-5.19-7.06-5.2-7.13-.03-.52-.47-.93-1-.93s-.96.41-.99.93c-.01.07-.53,7.13-5.2,7.13-.55,0-1,.44-1,1s.45,1,1,1c4.67,0,5.19,7.05,5.2,7.12.03.53.47.94.99.94s.97-.41,1-.94c.01-.07.53-7.12,5.2-7.12.55,0,1-.45,1-1s-.45-1-1-1ZM54.52,35.02c-.6-1.46-1.52-2.85-2.84-3.74,1.32-.9,2.24-2.29,2.84-3.74.61,1.45,1.53,2.84,2.85,3.74-1.32.89-2.24,2.28-2.85,3.74Z"/>
  <path class="st1" d="M57.37,31.28c-1.32.89-2.24,2.28-2.85,3.74-.6-1.46-1.52-2.85-2.84-3.74,1.32-.9,2.24-2.29,2.84-3.74.61,1.45,1.53,2.84,2.85,3.74Z"/>
</svg>