<?xml version="1.0" encoding="UTF-8"?>
<svg id="Layer_1" xmlns="http://www.w3.org/2000/svg" version="1.1" viewBox="0 0 64 64">
  <!-- Generator: Adobe Illustrator 29.3.1, SVG Export Plug-In . SVG Version: 2.1.0 Build 151)  -->
  <defs>
    <style>
      .st0 {
        fill: #fab271;
      }

      .st1 {
        fill: #31323a;
      }

      .st2 {
        fill: #fcd67b;
      }

      .st3 {
        fill: #dea254;
      }
    </style>
  </defs>
  <path class="st3" d="M37.45,33.06s-.8.5-1.69,1.05c-.02-.01-.03-.02-.04-.04-2.42-4.15-5.98-8.84-10.59-13.95h-6.2C7.36,33.05,2.72,43.18,5.51,49.44c1.65,3.72,5.66,5.6,9.26,6.55,2.14.56,4.14.8,5.42.9-.33.54-.52.85-.52.85l1.99,1.22s3.54-.1,7.35-1.22c0,0-2.59-1.27-2.59-1.42s2.88-9.22,2.88-9.22c0,0,5.42.13,5.52,0,.11-.12,2.76-8.92,2.76-8.92l1.26-1.08s-.26-2.19-1.39-4.04Z"/>
  <path class="st1" d="M37.45,33.06c-2.12-3.62-5.08-7.65-8.81-11.97l1.74.52c.09.03.19.04.29.04.42,0,.82-.28.95-.71.16-.53-.14-1.09-.67-1.25l-2.58-.77,6.05-2.84c.5-.24.71-.83.48-1.33-.24-.5-.83-.72-1.33-.48l-5.83,2.73,2.46-4.99c.74-1.51.65-3.26-.23-4.69-.89-1.42-2.43-2.28-4.11-2.28h-7.38c-1.65,0-3.17.83-4.06,2.22-.9,1.39-1.02,3.12-.34,4.62l3.22,7.07C5.11,32.62.52,43.15,3.68,50.26c3.83,8.59,17.34,8.7,17.98,8.7.5,0,1-.45,1-1s-.45-1-1-1c-.03,0-.58,0-1.47-.07-1.28-.1-3.28-.34-5.42-.9-3.6-.95-7.61-2.83-9.26-6.55-2.79-6.26,1.85-16.39,13.42-29.32h6.2c4.61,5.11,8.17,9.8,10.59,13.95.01.02.02.03.04.04.28.45.87.59,1.33.32.47-.28.63-.89.36-1.37ZM24.96,18.12h-5.84l-3.22-7.07c-.4-.89-.33-1.88.2-2.71.53-.82,1.4-1.3,2.38-1.3h7.38c.99,0,1.89.5,2.41,1.34.52.84.57,1.86.13,2.75l-3.44,6.99Z"/>
  <path class="st3" d="M28.4,11.13l-3.44,6.99h-5.84l-3.22-7.07c-.4-.89-.33-1.88.2-2.71.53-.82,1.4-1.3,2.38-1.3h7.38c.99,0,1.89.5,2.41,1.34.52.84.57,1.86.13,2.75Z"/>
  <path class="st1" d="M22.63,48.19c.55,0,1-.45,1-1v-2.05c1.89-.24,3.68-1.16,4.03-2.8.67-3.15-1.36-4.25-6.17-5.55-.75-.2-1.98-.71-1.82-1.88.13-.97,1.2-2.06,2.53-2.06,2.5,0,3.2,1.3,3.25,1.39.23.49.81.72,1.31.5.51-.22.74-.81.51-1.32-.04-.09-.89-1.94-3.64-2.44v-1.09c0-.55-.45-1-1-1s-1,.45-1,1v1.02c-1.98.26-3.69,1.83-3.94,3.74-.2,1.49.56,3.34,3.28,4.07,5.12,1.38,4.97,2.1,4.73,3.2-.14.68-1.66,1.38-3.39,1.27-.58-.04-2.5-.28-2.62-1.77-.04-.55-.52-.97-1.08-.91-.55.05-.96.53-.92,1.08.16,1.9,1.65,3.21,3.92,3.53v2.07c0,.55.45,1,1,1Z"/>
  <path class="st1" d="M61.25,56.75l-2.9-9.93c-.12-.42-.52-.72-.96-.72h-4.84l-2.69-9.2c-.12-.42-.52-.72-.96-.72h-11.18c-.44,0-.83.3-.96.72l-2.69,9.2h-4.84c-.44,0-.83.3-.96.72l-2.9,9.93c-.08.3-.03.62.16.88.19.25.49.4.8.4h33.96c.32,0,.61-.15.8-.4.19-.26.25-.58.16-.88ZM38.47,38.18h9.68l2.32,7.92h-14.31l2.31-7.92ZM27.67,56.03l2.31-7.93h9.68l2.32,7.93h-14.31ZM41.75,48.1h3.13l-1.57,5.36-1.56-5.36ZM44.65,56.03l2.31-7.93h9.68l2.32,7.93h-14.31Z"/>
  <polygon class="st2" points="50.47 46.1 36.16 46.1 38.47 38.18 48.15 38.18 50.47 46.1"/>
  <polygon class="st2" points="58.96 56.03 44.65 56.03 46.96 48.1 56.64 48.1 58.96 56.03"/>
  <polygon class="st2" points="41.98 56.03 27.67 56.03 29.98 48.1 39.66 48.1 41.98 56.03"/>
  <path class="st1" d="M58.69,30.3c-3.33,0-3.71-5.15-3.71-5.2-.04-.53-.48-.93-1-.93s-.96.4-1,.93c0,.05-.39,5.2-3.71,5.2-.56,0-1,.45-1,1s.44,1,1,1c3.32,0,3.71,5.14,3.71,5.2.04.52.47.93,1,.93s.96-.41,1-.93c0-.06.38-5.2,3.71-5.2.55,0,1-.45,1-1s-.45-1-1-1ZM53.98,33.57c-.42-.87-1-1.68-1.75-2.27.75-.6,1.33-1.41,1.75-2.27.42.86.99,1.67,1.75,2.27-.76.59-1.33,1.4-1.75,2.27Z"/>
  <path class="st0" d="M55.73,31.3c-.76.59-1.33,1.4-1.75,2.27-.42-.87-1-1.68-1.75-2.27.75-.6,1.33-1.41,1.75-2.27.42.86.99,1.67,1.75,2.27Z"/>
  <path class="st1" d="M47.64,22.22c-3.33,0-3.71-5.15-3.72-5.2-.03-.53-.47-.93-1-.93s-.96.4-.99.93c-.01.05-.39,5.2-3.72,5.2-.55,0-1,.45-1,1s.45,1,1,1c3.33,0,3.71,5.14,3.72,5.2.03.52.47.93.99.93s.97-.41,1-.93c.01-.06.39-5.2,3.72-5.2.55,0,1-.45,1-1s-.45-1-1-1ZM42.92,25.49c-.42-.87-.99-1.68-1.75-2.27.76-.6,1.33-1.41,1.75-2.27.43.86,1,1.67,1.76,2.27-.76.59-1.33,1.4-1.76,2.27Z"/>
  <path class="st0" d="M44.68,23.22c-.76.59-1.33,1.4-1.76,2.27-.42-.87-.99-1.68-1.75-2.27.76-.6,1.33-1.41,1.75-2.27.43.86,1,1.67,1.76,2.27Z"/>
</svg>